ISO-10303-21;
HEADER;
FILE_DESCRIPTION(('FreeCAD Model'),'2;1');
FILE_NAME('Open CASCADE Shape Model','2026-09-05T15:50:47',(''),(''),
  'Open CASCADE STEP processor 7.8','FreeCAD','Unknown');
FILE_SCHEMA(('AUTOMOTIVE_DESIGN { 1 0 10303 214 1 1 1 1 }'));
ENDSEC;
DATA;
#1 = APPLICATION_PROTOCOL_DEFINITION('international standard',
  'automotive_design',2000,#2);
#2 = APPLICATION_CONTEXT(
  'core data for automotive mechanical design processes');
#3 = SHAPE_DEFINITION_REPRESENTATION(#4,#10);
#4 = PRODUCT_DEFINITION_SHAPE('','',#5);
#5 = PRODUCT_DEFINITION('design','',#6,#9);
#6 = PRODUCT_DEFINITION_FORMATION('','',#7);
#7 = PRODUCT('back cover','back cover','',(#8));
#8 = PRODUCT_CONTEXT('',#2,'mechanical');
#9 = PRODUCT_DEFINITION_CONTEXT('part definition',#2,'design');
#10 = ADVANCED_BREP_SHAPE_REPRESENTATION('',(#11,#15),#1886);
#11 = AXIS2_PLACEMENT_3D('',#12,#13,#14);
#12 = CARTESIAN_POINT('',(0.,0.,0.));
#13 = DIRECTION('',(0.,0.,1.));
#14 = DIRECTION('',(1.,0.,-0.));
#15 = MANIFOLD_SOLID_BREP('',#16);
#16 = CLOSED_SHELL('',(#17,#114,#145,#170,#194,#218,#242,#318,#342,#366,
    #434,#467,#565,#596,#681,#705,#798,#815,#840,#865,#890,#915,#996,
    #1014,#1095,#1130,#1155,#1186,#1211,#1236,#1312,#1336,#1368,#1385,
    #1397,#1417,#1434,#1454,#1463,#1472,#1481,#1490,#1532,#1549,#1566,
    #1583,#1595,#1607,#1618,#1627,#1636,#1665,#1700,#1725,#1750,#1760,
    #1780,#1800,#1809,#1818,#1843,#1868,#1877));
#17 = ADVANCED_FACE('',(#18),#109,.T.);
#18 = FACE_BOUND('',#19,.T.);
#19 = EDGE_LOOP('',(#20,#30,#38,#46,#54,#62,#70,#78,#86,#94,#102));
#20 = ORIENTED_EDGE('',*,*,#21,.F.);
#21 = EDGE_CURVE('',#22,#24,#26,.T.);
#22 = VERTEX_POINT('',#23);
#23 = CARTESIAN_POINT('',(0.,28.123568255075,37.37965618151));
#24 = VERTEX_POINT('',#25);
#25 = CARTESIAN_POINT('',(0.,52.973464759243,124.04154417809));
#26 = LINE('',#27,#28);
#27 = CARTESIAN_POINT('',(0.,24.031542398458,23.109066104575));
#28 = VECTOR('',#29,1.);
#29 = DIRECTION('',(0.,0.275637355817,0.961261695938));
#30 = ORIENTED_EDGE('',*,*,#31,.T.);
#31 = EDGE_CURVE('',#22,#32,#34,.T.);
#32 = VERTEX_POINT('',#33);
#33 = CARTESIAN_POINT('',(0.,69.975678192304,30.));
#34 = LINE('',#35,#36);
#35 = CARTESIAN_POINT('',(0.,18.059445330008,39.154232590366));
#36 = VECTOR('',#37,1.);
#37 = DIRECTION('',(0.,0.984807753012,-0.173648177667));
#38 = ORIENTED_EDGE('',*,*,#39,.T.);
#39 = EDGE_CURVE('',#32,#40,#42,.T.);
#40 = VERTEX_POINT('',#41);
#41 = CARTESIAN_POINT('',(0.,70.,30.));
#42 = LINE('',#43,#44);
#43 = CARTESIAN_POINT('',(0.,0.,30.));
#44 = VECTOR('',#45,1.);
#45 = DIRECTION('',(0.,1.,0.));
#46 = ORIENTED_EDGE('',*,*,#47,.F.);
#47 = EDGE_CURVE('',#48,#40,#50,.T.);
#48 = VERTEX_POINT('',#49);
#49 = CARTESIAN_POINT('',(0.,70.,0.));
#50 = LINE('',#51,#52);
#51 = CARTESIAN_POINT('',(0.,70.,0.));
#52 = VECTOR('',#53,1.);
#53 = DIRECTION('',(0.,0.,1.));
#54 = ORIENTED_EDGE('',*,*,#55,.F.);
#55 = EDGE_CURVE('',#56,#48,#58,.T.);
#56 = VERTEX_POINT('',#57);
#57 = CARTESIAN_POINT('',(0.,5.,0.));
#58 = LINE('',#59,#60);
#59 = CARTESIAN_POINT('',(0.,0.,0.));
#60 = VECTOR('',#61,1.);
#61 = DIRECTION('',(0.,1.,0.));
#62 = ORIENTED_EDGE('',*,*,#63,.T.);
#63 = EDGE_CURVE('',#56,#64,#66,.T.);
#64 = VERTEX_POINT('',#65);
#65 = CARTESIAN_POINT('',(0.,5.,30.));
#66 = LINE('',#67,#68);
#67 = CARTESIAN_POINT('',(0.,5.,0.));
#68 = VECTOR('',#69,1.);
#69 = DIRECTION('',(0.,0.,1.));
#70 = ORIENTED_EDGE('',*,*,#71,.T.);
#71 = EDGE_CURVE('',#64,#72,#74,.T.);
#72 = VERTEX_POINT('',#73);
#73 = CARTESIAN_POINT('',(0.,32.183855822091,124.80137143324));
#74 = LINE('',#75,#76);
#75 = CARTESIAN_POINT('',(0.,5.,30.));
#76 = VECTOR('',#77,1.);
#77 = DIRECTION('',(0.,0.275637355817,0.961261695938));
#78 = ORIENTED_EDGE('',*,*,#79,.F.);
#79 = EDGE_CURVE('',#80,#72,#82,.T.);
#80 = VERTEX_POINT('',#81);
#81 = CARTESIAN_POINT('',(0.,32.180076231384,124.80245521344));
#82 = LINE('',#83,#84);
#83 = CARTESIAN_POINT('',(0.,27.5637355817,126.12616959383));
#84 = VECTOR('',#85,1.);
#85 = DIRECTION('',(0.,0.961261695938,-0.275637355817));
#86 = ORIENTED_EDGE('',*,*,#87,.T.);
#87 = EDGE_CURVE('',#80,#88,#90,.T.);
#88 = VERTEX_POINT('',#89);
#89 = CARTESIAN_POINT('',(0.,34.936449789554,134.41507217282));
#90 = LINE('',#91,#92);
#91 = CARTESIAN_POINT('',(0.,30.012616959383,117.24362644183));
#92 = VECTOR('',#93,1.);
#93 = DIRECTION('',(0.,0.275637355817,0.961261695938));
#94 = ORIENTED_EDGE('',*,*,#95,.T.);
#95 = EDGE_CURVE('',#88,#96,#98,.T.);
#96 = VERTEX_POINT('',#97);
#97 = CARTESIAN_POINT('',(0.,49.545343058636,130.22603943687));
#98 = LINE('',#99,#100);
#99 = CARTESIAN_POINT('',(0.,30.32010913987,135.73878655321));
#100 = VECTOR('',#101,1.);
#101 = DIRECTION('',(0.,0.961261695938,-0.275637355817));
#102 = ORIENTED_EDGE('',*,*,#103,.F.);
#103 = EDGE_CURVE('',#24,#96,#104,.T.);
#104 = CIRCLE('',#105,5.);
#105 = AXIS2_PLACEMENT_3D('',#106,#107,#108);
#106 = CARTESIAN_POINT('',(0.,48.167156279551,125.41973095718));
#107 = DIRECTION('',(1.,0.,-0.));
#108 = DIRECTION('',(0.,0.,1.));
#109 = PLANE('',#110);
#110 = AXIS2_PLACEMENT_3D('',#111,#112,#113);
#111 = CARTESIAN_POINT('',(0.,32.994585102385,56.283583903744));
#112 = DIRECTION('',(-1.,-0.,-0.));
#113 = DIRECTION('',(0.,0.,-1.));
#114 = ADVANCED_FACE('',(#115),#140,.T.);
#115 = FACE_BOUND('',#116,.T.);
#116 = EDGE_LOOP('',(#117,#127,#133,#134));
#117 = ORIENTED_EDGE('',*,*,#118,.F.);
#118 = EDGE_CURVE('',#119,#121,#123,.T.);
#119 = VERTEX_POINT('',#120);
#120 = CARTESIAN_POINT('',(200.,28.123568255075,37.37965618151));
#121 = VERTEX_POINT('',#122);
#122 = CARTESIAN_POINT('',(200.,52.973464759243,124.04154417809));
#123 = LINE('',#124,#125);
#124 = CARTESIAN_POINT('',(200.,24.031542398458,23.109066104575));
#125 = VECTOR('',#126,1.);
#126 = DIRECTION('',(0.,0.275637355817,0.961261695938));
#127 = ORIENTED_EDGE('',*,*,#128,.F.);
#128 = EDGE_CURVE('',#22,#119,#129,.T.);
#129 = LINE('',#130,#131);
#130 = CARTESIAN_POINT('',(0.,28.123568255075,37.37965618151));
#131 = VECTOR('',#132,1.);
#132 = DIRECTION('',(1.,0.,0.));
#133 = ORIENTED_EDGE('',*,*,#21,.T.);
#134 = ORIENTED_EDGE('',*,*,#135,.T.);
#135 = EDGE_CURVE('',#24,#121,#136,.T.);
#136 = LINE('',#137,#138);
#137 = CARTESIAN_POINT('',(0.,52.973464759243,124.04154417809));
#138 = VECTOR('',#139,1.);
#139 = DIRECTION('',(1.,0.,0.));
#140 = PLANE('',#141);
#141 = AXIS2_PLACEMENT_3D('',#142,#143,#144);
#142 = CARTESIAN_POINT('',(0.,24.031542398458,23.109066104575));
#143 = DIRECTION('',(0.,0.961261695938,-0.275637355817));
#144 = DIRECTION('',(0.,0.275637355817,0.961261695938));
#145 = ADVANCED_FACE('',(#146),#165,.T.);
#146 = FACE_BOUND('',#147,.T.);
#147 = EDGE_LOOP('',(#148,#149,#157,#164));
#148 = ORIENTED_EDGE('',*,*,#103,.T.);
#149 = ORIENTED_EDGE('',*,*,#150,.T.);
#150 = EDGE_CURVE('',#96,#151,#153,.T.);
#151 = VERTEX_POINT('',#152);
#152 = CARTESIAN_POINT('',(200.,49.545343058636,130.22603943687));
#153 = LINE('',#154,#155);
#154 = CARTESIAN_POINT('',(0.,49.545343058636,130.22603943687));
#155 = VECTOR('',#156,1.);
#156 = DIRECTION('',(1.,0.,0.));
#157 = ORIENTED_EDGE('',*,*,#158,.F.);
#158 = EDGE_CURVE('',#121,#151,#159,.T.);
#159 = CIRCLE('',#160,5.);
#160 = AXIS2_PLACEMENT_3D('',#161,#162,#163);
#161 = CARTESIAN_POINT('',(200.,48.167156279551,125.41973095718));
#162 = DIRECTION('',(1.,0.,-0.));
#163 = DIRECTION('',(0.,0.,1.));
#164 = ORIENTED_EDGE('',*,*,#135,.F.);
#165 = CYLINDRICAL_SURFACE('',#166,5.);
#166 = AXIS2_PLACEMENT_3D('',#167,#168,#169);
#167 = CARTESIAN_POINT('',(0.,48.167156279551,125.41973095718));
#168 = DIRECTION('',(1.,0.,0.));
#169 = DIRECTION('',(0.,0.961261695938,-0.275637355817));
#170 = ADVANCED_FACE('',(#171),#189,.T.);
#171 = FACE_BOUND('',#172,.T.);
#172 = EDGE_LOOP('',(#173,#174,#175,#183));
#173 = ORIENTED_EDGE('',*,*,#31,.F.);
#174 = ORIENTED_EDGE('',*,*,#128,.T.);
#175 = ORIENTED_EDGE('',*,*,#176,.T.);
#176 = EDGE_CURVE('',#119,#177,#179,.T.);
#177 = VERTEX_POINT('',#178);
#178 = CARTESIAN_POINT('',(200.,69.975678192304,30.));
#179 = LINE('',#180,#181);
#180 = CARTESIAN_POINT('',(200.,18.059445330008,39.154232590366));
#181 = VECTOR('',#182,1.);
#182 = DIRECTION('',(0.,0.984807753012,-0.173648177667));
#183 = ORIENTED_EDGE('',*,*,#184,.T.);
#184 = EDGE_CURVE('',#177,#32,#185,.T.);
#185 = LINE('',#186,#187);
#186 = CARTESIAN_POINT('',(0.,69.975678192304,30.));
#187 = VECTOR('',#188,1.);
#188 = DIRECTION('',(-1.,0.,0.));
#189 = PLANE('',#190);
#190 = AXIS2_PLACEMENT_3D('',#191,#192,#193);
#191 = CARTESIAN_POINT('',(0.,18.059445330008,39.154232590366));
#192 = DIRECTION('',(0.,0.173648177667,0.984807753012));
#193 = DIRECTION('',(1.,0.,0.));
#194 = ADVANCED_FACE('',(#195),#213,.T.);
#195 = FACE_BOUND('',#196,.T.);
#196 = EDGE_LOOP('',(#197,#198,#206,#212));
#197 = ORIENTED_EDGE('',*,*,#95,.F.);
#198 = ORIENTED_EDGE('',*,*,#199,.F.);
#199 = EDGE_CURVE('',#200,#88,#202,.T.);
#200 = VERTEX_POINT('',#201);
#201 = CARTESIAN_POINT('',(200.,34.936449789554,134.41507217282));
#202 = LINE('',#203,#204);
#203 = CARTESIAN_POINT('',(0.,34.936449789554,134.41507217282));
#204 = VECTOR('',#205,1.);
#205 = DIRECTION('',(-1.,0.,0.));
#206 = ORIENTED_EDGE('',*,*,#207,.T.);
#207 = EDGE_CURVE('',#200,#151,#208,.T.);
#208 = LINE('',#209,#210);
#209 = CARTESIAN_POINT('',(200.,30.32010913987,135.73878655321));
#210 = VECTOR('',#211,1.);
#211 = DIRECTION('',(0.,0.961261695938,-0.275637355817));
#212 = ORIENTED_EDGE('',*,*,#150,.F.);
#213 = PLANE('',#214);
#214 = AXIS2_PLACEMENT_3D('',#215,#216,#217);
#215 = CARTESIAN_POINT('',(0.,30.32010913987,135.73878655321));
#216 = DIRECTION('',(0.,0.275637355817,0.961261695938));
#217 = DIRECTION('',(1.,0.,0.));
#218 = ADVANCED_FACE('',(#219),#237,.T.);
#219 = FACE_BOUND('',#220,.T.);
#220 = EDGE_LOOP('',(#221,#222,#223,#231));
#221 = ORIENTED_EDGE('',*,*,#39,.F.);
#222 = ORIENTED_EDGE('',*,*,#184,.F.);
#223 = ORIENTED_EDGE('',*,*,#224,.T.);
#224 = EDGE_CURVE('',#177,#225,#227,.T.);
#225 = VERTEX_POINT('',#226);
#226 = CARTESIAN_POINT('',(200.,70.,30.));
#227 = LINE('',#228,#229);
#228 = CARTESIAN_POINT('',(200.,0.,30.));
#229 = VECTOR('',#230,1.);
#230 = DIRECTION('',(0.,1.,0.));
#231 = ORIENTED_EDGE('',*,*,#232,.F.);
#232 = EDGE_CURVE('',#40,#225,#233,.T.);
#233 = LINE('',#234,#235);
#234 = CARTESIAN_POINT('',(0.,70.,30.));
#235 = VECTOR('',#236,1.);
#236 = DIRECTION('',(1.,0.,0.));
#237 = PLANE('',#238);
#238 = AXIS2_PLACEMENT_3D('',#239,#240,#241);
#239 = CARTESIAN_POINT('',(0.,0.,30.));
#240 = DIRECTION('',(0.,0.,1.));
#241 = DIRECTION('',(1.,0.,0.));
#242 = ADVANCED_FACE('',(#243),#313,.F.);
#243 = FACE_BOUND('',#244,.F.);
#244 = EDGE_LOOP('',(#245,#253,#261,#270,#279,#287,#296,#305,#311,#312)
  );
#245 = ORIENTED_EDGE('',*,*,#246,.F.);
#246 = EDGE_CURVE('',#247,#200,#249,.T.);
#247 = VERTEX_POINT('',#248);
#248 = CARTESIAN_POINT('',(200.,32.180076231384,124.80245521344));
#249 = LINE('',#250,#251);
#250 = CARTESIAN_POINT('',(200.,22.049920671164,89.474404394376));
#251 = VECTOR('',#252,1.);
#252 = DIRECTION('',(0.,0.275637355817,0.961261695938));
#253 = ORIENTED_EDGE('',*,*,#254,.T.);
#254 = EDGE_CURVE('',#247,#255,#257,.T.);
#255 = VERTEX_POINT('',#256);
#256 = CARTESIAN_POINT('',(198.97572721014,32.180076231384,
    124.80245521344));
#257 = LINE('',#258,#259);
#258 = CARTESIAN_POINT('',(0.,32.180076231384,124.80245521344));
#259 = VECTOR('',#260,1.);
#260 = DIRECTION('',(-1.,0.,0.));
#261 = ORIENTED_EDGE('',*,*,#262,.F.);
#262 = EDGE_CURVE('',#263,#255,#265,.T.);
#263 = VERTEX_POINT('',#264);
#264 = CARTESIAN_POINT('',(199.,32.351720078965,125.40104844669));
#265 = CIRCLE('',#266,8.);
#266 = AXIS2_PLACEMENT_3D('',#267,#268,#269);
#267 = CARTESIAN_POINT('',(191.,32.351720078965,125.40104844669));
#268 = DIRECTION('',(0.,0.961261695938,-0.275637355817));
#269 = DIRECTION('',(1.,0.,0.));
#270 = ORIENTED_EDGE('',*,*,#271,.F.);
#271 = EDGE_CURVE('',#272,#263,#274,.T.);
#272 = VERTEX_POINT('',#273);
#273 = CARTESIAN_POINT('',(183.02427278985,32.180076231384,
    124.80245521344));
#274 = CIRCLE('',#275,8.);
#275 = AXIS2_PLACEMENT_3D('',#276,#277,#278);
#276 = CARTESIAN_POINT('',(191.,32.351720078965,125.40104844669));
#277 = DIRECTION('',(0.,0.961261695938,-0.275637355817));
#278 = DIRECTION('',(1.,0.,0.));
#279 = ORIENTED_EDGE('',*,*,#280,.T.);
#280 = EDGE_CURVE('',#272,#281,#283,.T.);
#281 = VERTEX_POINT('',#282);
#282 = CARTESIAN_POINT('',(16.975727210148,32.180076231384,
    124.80245521344));
#283 = LINE('',#284,#285);
#284 = CARTESIAN_POINT('',(0.,32.180076231384,124.80245521344));
#285 = VECTOR('',#286,1.);
#286 = DIRECTION('',(-1.,0.,0.));
#287 = ORIENTED_EDGE('',*,*,#288,.F.);
#288 = EDGE_CURVE('',#289,#281,#291,.T.);
#289 = VERTEX_POINT('',#290);
#290 = CARTESIAN_POINT('',(17.,32.351720078965,125.40104844669));
#291 = CIRCLE('',#292,8.);
#292 = AXIS2_PLACEMENT_3D('',#293,#294,#295);
#293 = CARTESIAN_POINT('',(9.,32.351720078965,125.40104844669));
#294 = DIRECTION('',(0.,0.961261695938,-0.275637355817));
#295 = DIRECTION('',(1.,0.,0.));
#296 = ORIENTED_EDGE('',*,*,#297,.F.);
#297 = EDGE_CURVE('',#298,#289,#300,.T.);
#298 = VERTEX_POINT('',#299);
#299 = CARTESIAN_POINT('',(1.024272789852,32.180076231384,
    124.80245521344));
#300 = CIRCLE('',#301,8.);
#301 = AXIS2_PLACEMENT_3D('',#302,#303,#304);
#302 = CARTESIAN_POINT('',(9.,32.351720078965,125.40104844669));
#303 = DIRECTION('',(0.,0.961261695938,-0.275637355817));
#304 = DIRECTION('',(1.,0.,0.));
#305 = ORIENTED_EDGE('',*,*,#306,.T.);
#306 = EDGE_CURVE('',#298,#80,#307,.T.);
#307 = LINE('',#308,#309);
#308 = CARTESIAN_POINT('',(0.,32.180076231384,124.80245521344));
#309 = VECTOR('',#310,1.);
#310 = DIRECTION('',(-1.,0.,0.));
#311 = ORIENTED_EDGE('',*,*,#87,.T.);
#312 = ORIENTED_EDGE('',*,*,#199,.F.);
#313 = PLANE('',#314);
#314 = AXIS2_PLACEMENT_3D('',#315,#316,#317);
#315 = CARTESIAN_POINT('',(0.,30.012616959383,117.24362644183));
#316 = DIRECTION('',(0.,0.961261695938,-0.275637355817));
#317 = DIRECTION('',(0.,0.275637355817,0.961261695938));
#318 = ADVANCED_FACE('',(#319),#337,.T.);
#319 = FACE_BOUND('',#320,.T.);
#320 = EDGE_LOOP('',(#321,#329,#330,#331));
#321 = ORIENTED_EDGE('',*,*,#322,.F.);
#322 = EDGE_CURVE('',#48,#323,#325,.T.);
#323 = VERTEX_POINT('',#324);
#324 = CARTESIAN_POINT('',(200.,70.,0.));
#325 = LINE('',#326,#327);
#326 = CARTESIAN_POINT('',(0.,70.,0.));
#327 = VECTOR('',#328,1.);
#328 = DIRECTION('',(1.,0.,0.));
#329 = ORIENTED_EDGE('',*,*,#47,.T.);
#330 = ORIENTED_EDGE('',*,*,#232,.T.);
#331 = ORIENTED_EDGE('',*,*,#332,.F.);
#332 = EDGE_CURVE('',#323,#225,#333,.T.);
#333 = LINE('',#334,#335);
#334 = CARTESIAN_POINT('',(200.,70.,0.));
#335 = VECTOR('',#336,1.);
#336 = DIRECTION('',(0.,0.,1.));
#337 = PLANE('',#338);
#338 = AXIS2_PLACEMENT_3D('',#339,#340,#341);
#339 = CARTESIAN_POINT('',(0.,70.,0.));
#340 = DIRECTION('',(0.,1.,0.));
#341 = DIRECTION('',(0.,0.,1.));
#342 = ADVANCED_FACE('',(#343),#361,.F.);
#343 = FACE_BOUND('',#344,.F.);
#344 = EDGE_LOOP('',(#345,#346,#347,#355));
#345 = ORIENTED_EDGE('',*,*,#79,.F.);
#346 = ORIENTED_EDGE('',*,*,#306,.F.);
#347 = ORIENTED_EDGE('',*,*,#348,.T.);
#348 = EDGE_CURVE('',#298,#349,#351,.T.);
#349 = VERTEX_POINT('',#350);
#350 = CARTESIAN_POINT('',(1.024272789852,32.183855822091,
    124.80137143324));
#351 = LINE('',#352,#353);
#352 = CARTESIAN_POINT('',(1.024272789852,47.52835615242,120.40140676675
    ));
#353 = VECTOR('',#354,1.);
#354 = DIRECTION('',(0.,0.961261695938,-0.275637355817));
#355 = ORIENTED_EDGE('',*,*,#356,.T.);
#356 = EDGE_CURVE('',#349,#72,#357,.T.);
#357 = LINE('',#358,#359);
#358 = CARTESIAN_POINT('',(0.,32.183855822091,124.80137143324));
#359 = VECTOR('',#360,1.);
#360 = DIRECTION('',(-1.,0.,0.));
#361 = PLANE('',#362);
#362 = AXIS2_PLACEMENT_3D('',#363,#364,#365);
#363 = CARTESIAN_POINT('',(0.,27.5637355817,126.12616959383));
#364 = DIRECTION('',(0.,0.275637355817,0.961261695938));
#365 = DIRECTION('',(1.,0.,0.));
#366 = ADVANCED_FACE('',(#367,#385,#396,#407,#418),#429,.F.);
#367 = FACE_BOUND('',#368,.F.);
#368 = EDGE_LOOP('',(#369,#370,#378,#384));
#369 = ORIENTED_EDGE('',*,*,#55,.F.);
#370 = ORIENTED_EDGE('',*,*,#371,.T.);
#371 = EDGE_CURVE('',#56,#372,#374,.T.);
#372 = VERTEX_POINT('',#373);
#373 = CARTESIAN_POINT('',(200.,5.,0.));
#374 = LINE('',#375,#376);
#375 = CARTESIAN_POINT('',(0.,5.,0.));
#376 = VECTOR('',#377,1.);
#377 = DIRECTION('',(1.,0.,0.));
#378 = ORIENTED_EDGE('',*,*,#379,.T.);
#379 = EDGE_CURVE('',#372,#323,#380,.T.);
#380 = LINE('',#381,#382);
#381 = CARTESIAN_POINT('',(200.,0.,0.));
#382 = VECTOR('',#383,1.);
#383 = DIRECTION('',(0.,1.,0.));
#384 = ORIENTED_EDGE('',*,*,#322,.F.);
#385 = FACE_BOUND('',#386,.F.);
#386 = EDGE_LOOP('',(#387));
#387 = ORIENTED_EDGE('',*,*,#388,.T.);
#388 = EDGE_CURVE('',#389,#389,#391,.T.);
#389 = VERTEX_POINT('',#390);
#390 = CARTESIAN_POINT('',(24.5,18.,0.));
#391 = CIRCLE('',#392,10.5);
#392 = AXIS2_PLACEMENT_3D('',#393,#394,#395);
#393 = CARTESIAN_POINT('',(14.,18.,0.));
#394 = DIRECTION('',(0.,0.,-1.));
#395 = DIRECTION('',(1.,0.,0.));
#396 = FACE_BOUND('',#397,.F.);
#397 = EDGE_LOOP('',(#398));
#398 = ORIENTED_EDGE('',*,*,#399,.T.);
#399 = EDGE_CURVE('',#400,#400,#402,.T.);
#400 = VERTEX_POINT('',#401);
#401 = CARTESIAN_POINT('',(196.5,18.,0.));
#402 = CIRCLE('',#403,10.5);
#403 = AXIS2_PLACEMENT_3D('',#404,#405,#406);
#404 = CARTESIAN_POINT('',(186.,18.,0.));
#405 = DIRECTION('',(0.,0.,-1.));
#406 = DIRECTION('',(1.,0.,0.));
#407 = FACE_BOUND('',#408,.F.);
#408 = EDGE_LOOP('',(#409));
#409 = ORIENTED_EDGE('',*,*,#410,.T.);
#410 = EDGE_CURVE('',#411,#411,#413,.T.);
#411 = VERTEX_POINT('',#412);
#412 = CARTESIAN_POINT('',(24.5,56.,0.));
#413 = CIRCLE('',#414,10.5);
#414 = AXIS2_PLACEMENT_3D('',#415,#416,#417);
#415 = CARTESIAN_POINT('',(14.,56.,0.));
#416 = DIRECTION('',(0.,0.,-1.));
#417 = DIRECTION('',(1.,0.,0.));
#418 = FACE_BOUND('',#419,.F.);
#419 = EDGE_LOOP('',(#420));
#420 = ORIENTED_EDGE('',*,*,#421,.T.);
#421 = EDGE_CURVE('',#422,#422,#424,.T.);
#422 = VERTEX_POINT('',#423);
#423 = CARTESIAN_POINT('',(196.5,56.,0.));
#424 = CIRCLE('',#425,10.5);
#425 = AXIS2_PLACEMENT_3D('',#426,#427,#428);
#426 = CARTESIAN_POINT('',(186.,56.,0.));
#427 = DIRECTION('',(0.,0.,-1.));
#428 = DIRECTION('',(1.,0.,0.));
#429 = PLANE('',#430);
#430 = AXIS2_PLACEMENT_3D('',#431,#432,#433);
#431 = CARTESIAN_POINT('',(0.,0.,0.));
#432 = DIRECTION('',(0.,0.,1.));
#433 = DIRECTION('',(1.,0.,0.));
#434 = ADVANCED_FACE('',(#435),#462,.F.);
#435 = FACE_BOUND('',#436,.F.);
#436 = EDGE_LOOP('',(#437,#445,#446,#447,#456));
#437 = ORIENTED_EDGE('',*,*,#438,.F.);
#438 = EDGE_CURVE('',#64,#439,#441,.T.);
#439 = VERTEX_POINT('',#440);
#440 = CARTESIAN_POINT('',(5.,5.,30.));
#441 = LINE('',#442,#443);
#442 = CARTESIAN_POINT('',(0.,5.,30.));
#443 = VECTOR('',#444,1.);
#444 = DIRECTION('',(1.,0.,0.));
#445 = ORIENTED_EDGE('',*,*,#71,.T.);
#446 = ORIENTED_EDGE('',*,*,#356,.F.);
#447 = ORIENTED_EDGE('',*,*,#448,.F.);
#448 = EDGE_CURVE('',#449,#349,#451,.T.);
#449 = VERTEX_POINT('',#450);
#450 = CARTESIAN_POINT('',(5.,30.445828050715,118.74014827955));
#451 = CIRCLE('',#452,8.);
#452 = AXIS2_PLACEMENT_3D('',#453,#454,#455);
#453 = CARTESIAN_POINT('',(9.,32.355499669671,125.39996466649));
#454 = DIRECTION('',(0.,0.961261695938,-0.275637355817));
#455 = DIRECTION('',(1.,0.,0.));
#456 = ORIENTED_EDGE('',*,*,#457,.T.);
#457 = EDGE_CURVE('',#449,#439,#458,.T.);
#458 = LINE('',#459,#460);
#459 = CARTESIAN_POINT('',(5.,4.677580304137,28.875588895669));
#460 = VECTOR('',#461,1.);
#461 = DIRECTION('',(0.,-0.275637355817,-0.961261695938));
#462 = PLANE('',#463);
#463 = AXIS2_PLACEMENT_3D('',#464,#465,#466);
#464 = CARTESIAN_POINT('',(0.,5.,30.));
#465 = DIRECTION('',(0.,0.961261695938,-0.275637355817));
#466 = DIRECTION('',(0.,0.275637355817,0.961261695938));
#467 = ADVANCED_FACE('',(#468,#538,#549),#560,.T.);
#468 = FACE_BOUND('',#469,.T.);
#469 = EDGE_LOOP('',(#470,#471,#479,#487,#495,#504,#512,#521,#530,#536,
    #537));
#470 = ORIENTED_EDGE('',*,*,#371,.T.);
#471 = ORIENTED_EDGE('',*,*,#472,.T.);
#472 = EDGE_CURVE('',#372,#473,#475,.T.);
#473 = VERTEX_POINT('',#474);
#474 = CARTESIAN_POINT('',(200.,5.,30.));
#475 = LINE('',#476,#477);
#476 = CARTESIAN_POINT('',(200.,5.,0.));
#477 = VECTOR('',#478,1.);
#478 = DIRECTION('',(0.,0.,1.));
#479 = ORIENTED_EDGE('',*,*,#480,.F.);
#480 = EDGE_CURVE('',#481,#473,#483,.T.);
#481 = VERTEX_POINT('',#482);
#482 = CARTESIAN_POINT('',(195.,5.,30.));
#483 = LINE('',#484,#485);
#484 = CARTESIAN_POINT('',(0.,5.,30.));
#485 = VECTOR('',#486,1.);
#486 = DIRECTION('',(1.,0.,0.));
#487 = ORIENTED_EDGE('',*,*,#488,.T.);
#488 = EDGE_CURVE('',#481,#489,#491,.T.);
#489 = VERTEX_POINT('',#490);
#490 = CARTESIAN_POINT('',(195.,5.,15.928203230276));
#491 = LINE('',#492,#493);
#492 = CARTESIAN_POINT('',(195.,5.,22.));
#493 = VECTOR('',#494,1.);
#494 = DIRECTION('',(0.,0.,-1.));
#495 = ORIENTED_EDGE('',*,*,#496,.T.);
#496 = EDGE_CURVE('',#489,#497,#499,.T.);
#497 = VERTEX_POINT('',#498);
#498 = CARTESIAN_POINT('',(184.07179676972,5.,5.));
#499 = CIRCLE('',#500,8.);
#500 = AXIS2_PLACEMENT_3D('',#501,#502,#503);
#501 = CARTESIAN_POINT('',(191.,5.,9.));
#502 = DIRECTION('',(0.,-1.,0.));
#503 = DIRECTION('',(1.,0.,0.));
#504 = ORIENTED_EDGE('',*,*,#505,.F.);
#505 = EDGE_CURVE('',#506,#497,#508,.T.);
#506 = VERTEX_POINT('',#507);
#507 = CARTESIAN_POINT('',(15.928203230276,5.,5.));
#508 = LINE('',#509,#510);
#509 = CARTESIAN_POINT('',(5.,5.,5.));
#510 = VECTOR('',#511,1.);
#511 = DIRECTION('',(1.,0.,0.));
#512 = ORIENTED_EDGE('',*,*,#513,.T.);
#513 = EDGE_CURVE('',#506,#514,#516,.T.);
#514 = VERTEX_POINT('',#515);
#515 = CARTESIAN_POINT('',(17.,5.,9.));
#516 = CIRCLE('',#517,8.);
#517 = AXIS2_PLACEMENT_3D('',#518,#519,#520);
#518 = CARTESIAN_POINT('',(9.,5.,9.));
#519 = DIRECTION('',(0.,-1.,0.));
#520 = DIRECTION('',(1.,0.,0.));
#521 = ORIENTED_EDGE('',*,*,#522,.T.);
#522 = EDGE_CURVE('',#514,#523,#525,.T.);
#523 = VERTEX_POINT('',#524);
#524 = CARTESIAN_POINT('',(5.,5.,15.928203230275));
#525 = CIRCLE('',#526,8.);
#526 = AXIS2_PLACEMENT_3D('',#527,#528,#529);
#527 = CARTESIAN_POINT('',(9.,5.,9.));
#528 = DIRECTION('',(0.,-1.,0.));
#529 = DIRECTION('',(1.,0.,0.));
#530 = ORIENTED_EDGE('',*,*,#531,.T.);
#531 = EDGE_CURVE('',#523,#439,#532,.T.);
#532 = LINE('',#533,#534);
#533 = CARTESIAN_POINT('',(5.,5.,5.));
#534 = VECTOR('',#535,1.);
#535 = DIRECTION('',(0.,0.,1.));
#536 = ORIENTED_EDGE('',*,*,#438,.F.);
#537 = ORIENTED_EDGE('',*,*,#63,.F.);
#538 = FACE_BOUND('',#539,.T.);
#539 = EDGE_LOOP('',(#540));
#540 = ORIENTED_EDGE('',*,*,#541,.F.);
#541 = EDGE_CURVE('',#542,#542,#544,.T.);
#542 = VERTEX_POINT('',#543);
#543 = CARTESIAN_POINT('',(13.2,5.,9.));
#544 = CIRCLE('',#545,4.2);
#545 = AXIS2_PLACEMENT_3D('',#546,#547,#548);
#546 = CARTESIAN_POINT('',(9.,5.,9.));
#547 = DIRECTION('',(0.,-1.,0.));
#548 = DIRECTION('',(1.,0.,0.));
#549 = FACE_BOUND('',#550,.T.);
#550 = EDGE_LOOP('',(#551));
#551 = ORIENTED_EDGE('',*,*,#552,.F.);
#552 = EDGE_CURVE('',#553,#553,#555,.T.);
#553 = VERTEX_POINT('',#554);
#554 = CARTESIAN_POINT('',(195.2,5.,9.));
#555 = CIRCLE('',#556,4.2);
#556 = AXIS2_PLACEMENT_3D('',#557,#558,#559);
#557 = CARTESIAN_POINT('',(191.,5.,9.));
#558 = DIRECTION('',(0.,-1.,0.));
#559 = DIRECTION('',(1.,0.,0.));
#560 = PLANE('',#561);
#561 = AXIS2_PLACEMENT_3D('',#562,#563,#564);
#562 = CARTESIAN_POINT('',(99.952842654896,5.,6.340808187788));
#563 = DIRECTION('',(-0.,-1.,-0.));
#564 = DIRECTION('',(0.,0.,-1.));
#565 = ADVANCED_FACE('',(#566),#591,.T.);
#566 = FACE_BOUND('',#567,.T.);
#567 = EDGE_LOOP('',(#568,#569,#570,#578,#584,#585,#586,#587,#588,#589,
    #590));
#568 = ORIENTED_EDGE('',*,*,#207,.F.);
#569 = ORIENTED_EDGE('',*,*,#246,.F.);
#570 = ORIENTED_EDGE('',*,*,#571,.T.);
#571 = EDGE_CURVE('',#247,#572,#574,.T.);
#572 = VERTEX_POINT('',#573);
#573 = CARTESIAN_POINT('',(200.,32.183855822091,124.80137143324));
#574 = LINE('',#575,#576);
#575 = CARTESIAN_POINT('',(200.,27.5637355817,126.12616959383));
#576 = VECTOR('',#577,1.);
#577 = DIRECTION('',(0.,0.961261695938,-0.275637355817));
#578 = ORIENTED_EDGE('',*,*,#579,.F.);
#579 = EDGE_CURVE('',#473,#572,#580,.T.);
#580 = LINE('',#581,#582);
#581 = CARTESIAN_POINT('',(200.,5.,30.));
#582 = VECTOR('',#583,1.);
#583 = DIRECTION('',(0.,0.275637355817,0.961261695938));
#584 = ORIENTED_EDGE('',*,*,#472,.F.);
#585 = ORIENTED_EDGE('',*,*,#379,.T.);
#586 = ORIENTED_EDGE('',*,*,#332,.T.);
#587 = ORIENTED_EDGE('',*,*,#224,.F.);
#588 = ORIENTED_EDGE('',*,*,#176,.F.);
#589 = ORIENTED_EDGE('',*,*,#118,.T.);
#590 = ORIENTED_EDGE('',*,*,#158,.T.);
#591 = PLANE('',#592);
#592 = AXIS2_PLACEMENT_3D('',#593,#594,#595);
#593 = CARTESIAN_POINT('',(200.,32.994585102385,56.283583903744));
#594 = DIRECTION('',(1.,0.,0.));
#595 = DIRECTION('',(0.,0.,1.));
#596 = ADVANCED_FACE('',(#597),#676,.T.);
#597 = FACE_BOUND('',#598,.F.);
#598 = EDGE_LOOP('',(#599,#600,#608,#615,#616,#617,#625,#634,#642,#651,
    #659,#668,#674,#675));
#599 = ORIENTED_EDGE('',*,*,#297,.T.);
#600 = ORIENTED_EDGE('',*,*,#601,.T.);
#601 = EDGE_CURVE('',#289,#602,#604,.T.);
#602 = VERTEX_POINT('',#603);
#603 = CARTESIAN_POINT('',(17.,32.319812864987,125.41019769307));
#604 = LINE('',#605,#606);
#605 = CARTESIAN_POINT('',(17.,47.7,121.));
#606 = VECTOR('',#607,1.);
#607 = DIRECTION('',(0.,-0.961261695938,0.275637355817));
#608 = ORIENTED_EDGE('',*,*,#609,.T.);
#609 = EDGE_CURVE('',#602,#602,#610,.T.);
#610 = CIRCLE('',#611,8.);
#611 = AXIS2_PLACEMENT_3D('',#612,#613,#614);
#612 = CARTESIAN_POINT('',(9.,32.319812864987,125.41019769307));
#613 = DIRECTION('',(0.,-0.961261695938,0.275637355817));
#614 = DIRECTION('',(1.,0.,0.));
#615 = ORIENTED_EDGE('',*,*,#601,.F.);
#616 = ORIENTED_EDGE('',*,*,#288,.T.);
#617 = ORIENTED_EDGE('',*,*,#618,.T.);
#618 = EDGE_CURVE('',#281,#619,#621,.T.);
#619 = VERTEX_POINT('',#620);
#620 = CARTESIAN_POINT('',(16.975727210148,32.183855822091,
    124.80137143324));
#621 = LINE('',#622,#623);
#622 = CARTESIAN_POINT('',(16.975727210148,47.52835615242,
    120.40140676675));
#623 = VECTOR('',#624,1.);
#624 = DIRECTION('',(0.,0.961261695938,-0.275637355817));
#625 = ORIENTED_EDGE('',*,*,#626,.T.);
#626 = EDGE_CURVE('',#619,#627,#629,.T.);
#627 = VERTEX_POINT('',#628);
#628 = CARTESIAN_POINT('',(16.974869158069,32.180853023839,
    124.79089943125));
#629 = CIRCLE('',#630,8.);
#630 = AXIS2_PLACEMENT_3D('',#631,#632,#633);
#631 = CARTESIAN_POINT('',(9.,32.355499669671,125.39996466649));
#632 = DIRECTION('',(0.,0.961261695938,-0.275637355817));
#633 = DIRECTION('',(1.,0.,0.));
#634 = ORIENTED_EDGE('',*,*,#635,.T.);
#635 = EDGE_CURVE('',#627,#636,#638,.T.);
#636 = VERTEX_POINT('',#637);
#637 = CARTESIAN_POINT('',(16.974869158069,47.040434523589,
    120.52998300189));
#638 = LINE('',#639,#640);
#639 = CARTESIAN_POINT('',(16.974869158069,47.525353354168,
    120.39093476475));
#640 = VECTOR('',#641,1.);
#641 = DIRECTION('',(0.,0.961261695938,-0.275637355817));
#642 = ORIENTED_EDGE('',*,*,#643,.T.);
#643 = EDGE_CURVE('',#636,#644,#646,.T.);
#644 = VERTEX_POINT('',#645);
#645 = CARTESIAN_POINT('',(13.544362994762,45.40029091064,
    114.81012247611));
#646 = CIRCLE('',#647,8.);
#647 = AXIS2_PLACEMENT_3D('',#648,#649,#650);
#648 = CARTESIAN_POINT('',(9.,47.215081169421,121.13904823713));
#649 = DIRECTION('',(0.,0.961261695938,-0.275637355817));
#650 = DIRECTION('',(1.,0.,0.));
#651 = ORIENTED_EDGE('',*,*,#652,.T.);
#652 = EDGE_CURVE('',#644,#653,#655,.T.);
#653 = VERTEX_POINT('',#654);
#654 = CARTESIAN_POINT('',(13.544362994762,45.410782721381,
    114.8071139978));
#655 = LINE('',#656,#657);
#656 = CARTESIAN_POINT('',(13.544362994762,45.885209741218,
    114.67107423898));
#657 = VECTOR('',#658,1.);
#658 = DIRECTION('',(0.,0.961261695938,-0.275637355817));
#659 = ORIENTED_EDGE('',*,*,#660,.T.);
#660 = EDGE_CURVE('',#653,#661,#663,.T.);
#661 = VERTEX_POINT('',#662);
#662 = CARTESIAN_POINT('',(5.,45.315901361207,114.47622337187));
#663 = CIRCLE('',#664,8.);
#664 = AXIS2_PLACEMENT_3D('',#665,#666,#667);
#665 = CARTESIAN_POINT('',(9.,47.225572980163,121.13603975881));
#666 = DIRECTION('',(0.,0.961261695938,-0.275637355817));
#667 = DIRECTION('',(1.,0.,0.));
#668 = ORIENTED_EDGE('',*,*,#669,.F.);
#669 = EDGE_CURVE('',#449,#661,#670,.T.);
#670 = LINE('',#671,#672);
#671 = CARTESIAN_POINT('',(5.,45.790328381044,114.34018361306));
#672 = VECTOR('',#673,1.);
#673 = DIRECTION('',(0.,0.961261695938,-0.275637355817));
#674 = ORIENTED_EDGE('',*,*,#448,.T.);
#675 = ORIENTED_EDGE('',*,*,#348,.F.);
#676 = CYLINDRICAL_SURFACE('',#677,8.);
#677 = AXIS2_PLACEMENT_3D('',#678,#679,#680);
#678 = CARTESIAN_POINT('',(9.,47.7,121.));
#679 = DIRECTION('',(-0.,0.961261695938,-0.275637355817));
#680 = DIRECTION('',(1.,0.,0.));
#681 = ADVANCED_FACE('',(#682),#700,.F.);
#682 = FACE_BOUND('',#683,.F.);
#683 = EDGE_LOOP('',(#684,#685,#686,#694));
#684 = ORIENTED_EDGE('',*,*,#618,.F.);
#685 = ORIENTED_EDGE('',*,*,#280,.F.);
#686 = ORIENTED_EDGE('',*,*,#687,.T.);
#687 = EDGE_CURVE('',#272,#688,#690,.T.);
#688 = VERTEX_POINT('',#689);
#689 = CARTESIAN_POINT('',(183.02427278985,32.183855822091,
    124.80137143324));
#690 = LINE('',#691,#692);
#691 = CARTESIAN_POINT('',(183.02427278985,47.52835615242,
    120.40140676675));
#692 = VECTOR('',#693,1.);
#693 = DIRECTION('',(0.,0.961261695938,-0.275637355817));
#694 = ORIENTED_EDGE('',*,*,#695,.T.);
#695 = EDGE_CURVE('',#688,#619,#696,.T.);
#696 = LINE('',#697,#698);
#697 = CARTESIAN_POINT('',(0.,32.183855822091,124.80137143324));
#698 = VECTOR('',#699,1.);
#699 = DIRECTION('',(-1.,0.,0.));
#700 = PLANE('',#701);
#701 = AXIS2_PLACEMENT_3D('',#702,#703,#704);
#702 = CARTESIAN_POINT('',(0.,27.5637355817,126.12616959383));
#703 = DIRECTION('',(0.,0.275637355817,0.961261695938));
#704 = DIRECTION('',(1.,0.,0.));
#705 = ADVANCED_FACE('',(#706),#793,.T.);
#706 = FACE_BOUND('',#707,.F.);
#707 = EDGE_LOOP('',(#708,#709,#717,#724,#725,#726,#734,#743,#751,#760,
    #768,#777,#785,#792));
#708 = ORIENTED_EDGE('',*,*,#271,.T.);
#709 = ORIENTED_EDGE('',*,*,#710,.T.);
#710 = EDGE_CURVE('',#263,#711,#713,.T.);
#711 = VERTEX_POINT('',#712);
#712 = CARTESIAN_POINT('',(199.,32.319812864987,125.41019769307));
#713 = LINE('',#714,#715);
#714 = CARTESIAN_POINT('',(199.,47.7,121.));
#715 = VECTOR('',#716,1.);
#716 = DIRECTION('',(0.,-0.961261695938,0.275637355817));
#717 = ORIENTED_EDGE('',*,*,#718,.T.);
#718 = EDGE_CURVE('',#711,#711,#719,.T.);
#719 = CIRCLE('',#720,8.);
#720 = AXIS2_PLACEMENT_3D('',#721,#722,#723);
#721 = CARTESIAN_POINT('',(191.,32.319812864987,125.41019769307));
#722 = DIRECTION('',(0.,-0.961261695938,0.275637355817));
#723 = DIRECTION('',(1.,0.,0.));
#724 = ORIENTED_EDGE('',*,*,#710,.F.);
#725 = ORIENTED_EDGE('',*,*,#262,.T.);
#726 = ORIENTED_EDGE('',*,*,#727,.T.);
#727 = EDGE_CURVE('',#255,#728,#730,.T.);
#728 = VERTEX_POINT('',#729);
#729 = CARTESIAN_POINT('',(198.97572721014,32.183855822091,
    124.80137143324));
#730 = LINE('',#731,#732);
#731 = CARTESIAN_POINT('',(198.97572721014,47.52835615242,
    120.40140676675));
#732 = VECTOR('',#733,1.);
#733 = DIRECTION('',(0.,0.961261695938,-0.275637355817));
#734 = ORIENTED_EDGE('',*,*,#735,.T.);
#735 = EDGE_CURVE('',#728,#736,#738,.T.);
#736 = VERTEX_POINT('',#737);
#737 = CARTESIAN_POINT('',(195.,30.445828050715,118.74014827955));
#738 = CIRCLE('',#739,8.);
#739 = AXIS2_PLACEMENT_3D('',#740,#741,#742);
#740 = CARTESIAN_POINT('',(191.,32.355499669671,125.39996466649));
#741 = DIRECTION('',(0.,0.961261695938,-0.275637355817));
#742 = DIRECTION('',(1.,0.,0.));
#743 = ORIENTED_EDGE('',*,*,#744,.T.);
#744 = EDGE_CURVE('',#736,#745,#747,.T.);
#745 = VERTEX_POINT('',#746);
#746 = CARTESIAN_POINT('',(195.,45.315901361207,114.47622337187));
#747 = LINE('',#748,#749);
#748 = CARTESIAN_POINT('',(195.,45.790328381044,114.34018361306));
#749 = VECTOR('',#750,1.);
#750 = DIRECTION('',(0.,0.961261695938,-0.275637355817));
#751 = ORIENTED_EDGE('',*,*,#752,.T.);
#752 = EDGE_CURVE('',#745,#753,#755,.T.);
#753 = VERTEX_POINT('',#754);
#754 = CARTESIAN_POINT('',(186.45563700523,45.410782721381,
    114.8071139978));
#755 = CIRCLE('',#756,8.);
#756 = AXIS2_PLACEMENT_3D('',#757,#758,#759);
#757 = CARTESIAN_POINT('',(191.,47.225572980163,121.13603975881));
#758 = DIRECTION('',(0.,0.961261695938,-0.275637355817));
#759 = DIRECTION('',(1.,0.,0.));
#760 = ORIENTED_EDGE('',*,*,#761,.F.);
#761 = EDGE_CURVE('',#762,#753,#764,.T.);
#762 = VERTEX_POINT('',#763);
#763 = CARTESIAN_POINT('',(186.45563700523,45.40029091064,
    114.81012247611));
#764 = LINE('',#765,#766);
#765 = CARTESIAN_POINT('',(186.45563700523,45.885209741218,
    114.67107423898));
#766 = VECTOR('',#767,1.);
#767 = DIRECTION('',(0.,0.961261695938,-0.275637355817));
#768 = ORIENTED_EDGE('',*,*,#769,.T.);
#769 = EDGE_CURVE('',#762,#770,#772,.T.);
#770 = VERTEX_POINT('',#771);
#771 = CARTESIAN_POINT('',(183.02513084193,47.040434523589,
    120.52998300189));
#772 = CIRCLE('',#773,8.);
#773 = AXIS2_PLACEMENT_3D('',#774,#775,#776);
#774 = CARTESIAN_POINT('',(191.,47.215081169421,121.13904823713));
#775 = DIRECTION('',(0.,0.961261695938,-0.275637355817));
#776 = DIRECTION('',(1.,0.,0.));
#777 = ORIENTED_EDGE('',*,*,#778,.F.);
#778 = EDGE_CURVE('',#779,#770,#781,.T.);
#779 = VERTEX_POINT('',#780);
#780 = CARTESIAN_POINT('',(183.02513084193,32.180853023839,
    124.79089943125));
#781 = LINE('',#782,#783);
#782 = CARTESIAN_POINT('',(183.02513084193,47.525353354168,
    120.39093476475));
#783 = VECTOR('',#784,1.);
#784 = DIRECTION('',(0.,0.961261695938,-0.275637355817));
#785 = ORIENTED_EDGE('',*,*,#786,.T.);
#786 = EDGE_CURVE('',#779,#688,#787,.T.);
#787 = CIRCLE('',#788,8.);
#788 = AXIS2_PLACEMENT_3D('',#789,#790,#791);
#789 = CARTESIAN_POINT('',(191.,32.355499669671,125.39996466649));
#790 = DIRECTION('',(0.,0.961261695938,-0.275637355817));
#791 = DIRECTION('',(1.,0.,0.));
#792 = ORIENTED_EDGE('',*,*,#687,.F.);
#793 = CYLINDRICAL_SURFACE('',#794,8.);
#794 = AXIS2_PLACEMENT_3D('',#795,#796,#797);
#795 = CARTESIAN_POINT('',(191.,47.7,121.));
#796 = DIRECTION('',(-0.,0.961261695938,-0.275637355817));
#797 = DIRECTION('',(1.,0.,0.));
#798 = ADVANCED_FACE('',(#799),#810,.F.);
#799 = FACE_BOUND('',#800,.F.);
#800 = EDGE_LOOP('',(#801,#802,#803,#804));
#801 = ORIENTED_EDGE('',*,*,#727,.F.);
#802 = ORIENTED_EDGE('',*,*,#254,.F.);
#803 = ORIENTED_EDGE('',*,*,#571,.T.);
#804 = ORIENTED_EDGE('',*,*,#805,.T.);
#805 = EDGE_CURVE('',#572,#728,#806,.T.);
#806 = LINE('',#807,#808);
#807 = CARTESIAN_POINT('',(0.,32.183855822091,124.80137143324));
#808 = VECTOR('',#809,1.);
#809 = DIRECTION('',(-1.,0.,0.));
#810 = PLANE('',#811);
#811 = AXIS2_PLACEMENT_3D('',#812,#813,#814);
#812 = CARTESIAN_POINT('',(0.,27.5637355817,126.12616959383));
#813 = DIRECTION('',(0.,0.275637355817,0.961261695938));
#814 = DIRECTION('',(1.,0.,0.));
#815 = ADVANCED_FACE('',(#816),#835,.F.);
#816 = FACE_BOUND('',#817,.T.);
#817 = EDGE_LOOP('',(#818,#819,#827,#834));
#818 = ORIENTED_EDGE('',*,*,#388,.T.);
#819 = ORIENTED_EDGE('',*,*,#820,.T.);
#820 = EDGE_CURVE('',#389,#821,#823,.T.);
#821 = VERTEX_POINT('',#822);
#822 = CARTESIAN_POINT('',(24.5,18.,0.2));
#823 = LINE('',#824,#825);
#824 = CARTESIAN_POINT('',(24.5,18.,-9.8));
#825 = VECTOR('',#826,1.);
#826 = DIRECTION('',(0.,0.,1.));
#827 = ORIENTED_EDGE('',*,*,#828,.T.);
#828 = EDGE_CURVE('',#821,#821,#829,.T.);
#829 = CIRCLE('',#830,10.5);
#830 = AXIS2_PLACEMENT_3D('',#831,#832,#833);
#831 = CARTESIAN_POINT('',(14.,18.,0.2));
#832 = DIRECTION('',(0.,0.,1.));
#833 = DIRECTION('',(1.,0.,0.));
#834 = ORIENTED_EDGE('',*,*,#820,.F.);
#835 = CYLINDRICAL_SURFACE('',#836,10.5);
#836 = AXIS2_PLACEMENT_3D('',#837,#838,#839);
#837 = CARTESIAN_POINT('',(14.,18.,-9.8));
#838 = DIRECTION('',(-0.,-0.,-1.));
#839 = DIRECTION('',(1.,0.,0.));
#840 = ADVANCED_FACE('',(#841),#860,.F.);
#841 = FACE_BOUND('',#842,.T.);
#842 = EDGE_LOOP('',(#843,#844,#852,#859));
#843 = ORIENTED_EDGE('',*,*,#399,.T.);
#844 = ORIENTED_EDGE('',*,*,#845,.T.);
#845 = EDGE_CURVE('',#400,#846,#848,.T.);
#846 = VERTEX_POINT('',#847);
#847 = CARTESIAN_POINT('',(196.5,18.,0.2));
#848 = LINE('',#849,#850);
#849 = CARTESIAN_POINT('',(196.5,18.,-9.8));
#850 = VECTOR('',#851,1.);
#851 = DIRECTION('',(0.,0.,1.));
#852 = ORIENTED_EDGE('',*,*,#853,.T.);
#853 = EDGE_CURVE('',#846,#846,#854,.T.);
#854 = CIRCLE('',#855,10.5);
#855 = AXIS2_PLACEMENT_3D('',#856,#857,#858);
#856 = CARTESIAN_POINT('',(186.,18.,0.2));
#857 = DIRECTION('',(0.,0.,1.));
#858 = DIRECTION('',(1.,0.,0.));
#859 = ORIENTED_EDGE('',*,*,#845,.F.);
#860 = CYLINDRICAL_SURFACE('',#861,10.5);
#861 = AXIS2_PLACEMENT_3D('',#862,#863,#864);
#862 = CARTESIAN_POINT('',(186.,18.,-9.8));
#863 = DIRECTION('',(-0.,-0.,-1.));
#864 = DIRECTION('',(1.,0.,0.));
#865 = ADVANCED_FACE('',(#866),#885,.F.);
#866 = FACE_BOUND('',#867,.T.);
#867 = EDGE_LOOP('',(#868,#869,#877,#884));
#868 = ORIENTED_EDGE('',*,*,#410,.T.);
#869 = ORIENTED_EDGE('',*,*,#870,.T.);
#870 = EDGE_CURVE('',#411,#871,#873,.T.);
#871 = VERTEX_POINT('',#872);
#872 = CARTESIAN_POINT('',(24.5,56.,0.2));
#873 = LINE('',#874,#875);
#874 = CARTESIAN_POINT('',(24.5,56.,-9.8));
#875 = VECTOR('',#876,1.);
#876 = DIRECTION('',(0.,0.,1.));
#877 = ORIENTED_EDGE('',*,*,#878,.T.);
#878 = EDGE_CURVE('',#871,#871,#879,.T.);
#879 = CIRCLE('',#880,10.5);
#880 = AXIS2_PLACEMENT_3D('',#881,#882,#883);
#881 = CARTESIAN_POINT('',(14.,56.,0.2));
#882 = DIRECTION('',(0.,0.,1.));
#883 = DIRECTION('',(1.,0.,0.));
#884 = ORIENTED_EDGE('',*,*,#870,.F.);
#885 = CYLINDRICAL_SURFACE('',#886,10.5);
#886 = AXIS2_PLACEMENT_3D('',#887,#888,#889);
#887 = CARTESIAN_POINT('',(14.,56.,-9.8));
#888 = DIRECTION('',(-0.,-0.,-1.));
#889 = DIRECTION('',(1.,0.,0.));
#890 = ADVANCED_FACE('',(#891),#910,.F.);
#891 = FACE_BOUND('',#892,.T.);
#892 = EDGE_LOOP('',(#893,#894,#902,#909));
#893 = ORIENTED_EDGE('',*,*,#421,.T.);
#894 = ORIENTED_EDGE('',*,*,#895,.T.);
#895 = EDGE_CURVE('',#422,#896,#898,.T.);
#896 = VERTEX_POINT('',#897);
#897 = CARTESIAN_POINT('',(196.5,56.,0.2));
#898 = LINE('',#899,#900);
#899 = CARTESIAN_POINT('',(196.5,56.,-9.8));
#900 = VECTOR('',#901,1.);
#901 = DIRECTION('',(0.,0.,1.));
#902 = ORIENTED_EDGE('',*,*,#903,.T.);
#903 = EDGE_CURVE('',#896,#896,#904,.T.);
#904 = CIRCLE('',#905,10.5);
#905 = AXIS2_PLACEMENT_3D('',#906,#907,#908);
#906 = CARTESIAN_POINT('',(186.,56.,0.2));
#907 = DIRECTION('',(0.,0.,1.));
#908 = DIRECTION('',(1.,0.,0.));
#909 = ORIENTED_EDGE('',*,*,#895,.F.);
#910 = CYLINDRICAL_SURFACE('',#911,10.5);
#911 = AXIS2_PLACEMENT_3D('',#912,#913,#914);
#912 = CARTESIAN_POINT('',(186.,56.,-9.8));
#913 = DIRECTION('',(-0.,-0.,-1.));
#914 = DIRECTION('',(1.,0.,0.));
#915 = ADVANCED_FACE('',(#916),#991,.T.);
#916 = FACE_BOUND('',#917,.T.);
#917 = EDGE_LOOP('',(#918,#928,#934,#935,#936,#937,#945,#953,#961,#969,
    #977,#985));
#918 = ORIENTED_EDGE('',*,*,#919,.F.);
#919 = EDGE_CURVE('',#920,#922,#924,.T.);
#920 = VERTEX_POINT('',#921);
#921 = CARTESIAN_POINT('',(5.,21.954949332258,33.006901844245));
#922 = VERTEX_POINT('',#923);
#923 = CARTESIAN_POINT('',(5.,26.633166052977,32.182006014781));
#924 = LINE('',#925,#926);
#925 = CARTESIAN_POINT('',(5.,19.736481776669,33.398077530122));
#926 = VECTOR('',#927,1.);
#927 = DIRECTION('',(0.,0.984807753012,-0.173648177667));
#928 = ORIENTED_EDGE('',*,*,#929,.T.);
#929 = EDGE_CURVE('',#920,#661,#930,.T.);
#930 = LINE('',#931,#932);
#931 = CARTESIAN_POINT('',(5.,19.225233918766,23.48725288366));
#932 = VECTOR('',#933,1.);
#933 = DIRECTION('',(0.,0.275637355817,0.961261695938));
#934 = ORIENTED_EDGE('',*,*,#669,.F.);
#935 = ORIENTED_EDGE('',*,*,#457,.T.);
#936 = ORIENTED_EDGE('',*,*,#531,.F.);
#937 = ORIENTED_EDGE('',*,*,#938,.T.);
#938 = EDGE_CURVE('',#523,#939,#941,.T.);
#939 = VERTEX_POINT('',#940);
#940 = CARTESIAN_POINT('',(5.,55.,15.928203230276));
#941 = LINE('',#942,#943);
#942 = CARTESIAN_POINT('',(5.,55.,15.928203230276));
#943 = VECTOR('',#944,1.);
#944 = DIRECTION('',(0.,1.,2.2E-16));
#945 = ORIENTED_EDGE('',*,*,#946,.F.);
#946 = EDGE_CURVE('',#947,#939,#949,.T.);
#947 = VERTEX_POINT('',#948);
#948 = CARTESIAN_POINT('',(5.,55.,5.));
#949 = LINE('',#950,#951);
#950 = CARTESIAN_POINT('',(5.,55.,31.030041779548));
#951 = VECTOR('',#952,1.);
#952 = DIRECTION('',(0.,-2.2E-16,1.));
#953 = ORIENTED_EDGE('',*,*,#954,.T.);
#954 = EDGE_CURVE('',#947,#955,#957,.T.);
#955 = VERTEX_POINT('',#956);
#956 = CARTESIAN_POINT('',(5.,65.,5.));
#957 = LINE('',#958,#959);
#958 = CARTESIAN_POINT('',(5.,5.,5.));
#959 = VECTOR('',#960,1.);
#960 = DIRECTION('',(0.,1.,0.));
#961 = ORIENTED_EDGE('',*,*,#962,.T.);
#962 = EDGE_CURVE('',#955,#963,#965,.T.);
#963 = VERTEX_POINT('',#964);
#964 = CARTESIAN_POINT('',(5.,65.,30.));
#965 = LINE('',#966,#967);
#966 = CARTESIAN_POINT('',(5.,65.,5.));
#967 = VECTOR('',#968,1.);
#968 = DIRECTION('',(0.,0.,1.));
#969 = ORIENTED_EDGE('',*,*,#970,.F.);
#970 = EDGE_CURVE('',#971,#963,#973,.T.);
#971 = VERTEX_POINT('',#972);
#972 = CARTESIAN_POINT('',(5.,39.744382458956,30.));
#973 = LINE('',#974,#975);
#974 = CARTESIAN_POINT('',(5.,5.,30.));
#975 = VECTOR('',#976,1.);
#976 = DIRECTION('',(0.,1.,0.));
#977 = ORIENTED_EDGE('',*,*,#978,.F.);
#978 = EDGE_CURVE('',#979,#971,#981,.T.);
#979 = VERTEX_POINT('',#980);
#980 = CARTESIAN_POINT('',(5.,26.668609380562,32.305611587342));
#981 = LINE('',#982,#983);
#982 = CARTESIAN_POINT('',(5.,15.322963553339,34.306155060244));
#983 = VECTOR('',#984,1.);
#984 = DIRECTION('',(0.,0.984807753012,-0.173648177667));
#985 = ORIENTED_EDGE('',*,*,#986,.F.);
#986 = EDGE_CURVE('',#922,#979,#987,.T.);
#987 = LINE('',#988,#989);
#988 = CARTESIAN_POINT('',(5.,23.774485639801,22.212602651548));
#989 = VECTOR('',#990,1.);
#990 = DIRECTION('',(0.,0.275637355817,0.961261695938));
#991 = PLANE('',#992);
#992 = AXIS2_PLACEMENT_3D('',#993,#994,#995);
#993 = CARTESIAN_POINT('',(5.,31.571942928336,53.060083559096));
#994 = DIRECTION('',(1.,0.,0.));
#995 = DIRECTION('',(0.,0.,1.));
#996 = ADVANCED_FACE('',(#997),#1009,.F.);
#997 = FACE_BOUND('',#998,.F.);
#998 = EDGE_LOOP('',(#999,#1000,#1001,#1002,#1003));
#999 = ORIENTED_EDGE('',*,*,#735,.F.);
#1000 = ORIENTED_EDGE('',*,*,#805,.F.);
#1001 = ORIENTED_EDGE('',*,*,#579,.F.);
#1002 = ORIENTED_EDGE('',*,*,#480,.F.);
#1003 = ORIENTED_EDGE('',*,*,#1004,.F.);
#1004 = EDGE_CURVE('',#736,#481,#1005,.T.);
#1005 = LINE('',#1006,#1007);
#1006 = CARTESIAN_POINT('',(195.,17.212239732835,72.589141235935));
#1007 = VECTOR('',#1008,1.);
#1008 = DIRECTION('',(0.,-0.275637355817,-0.961261695938));
#1009 = PLANE('',#1010);
#1010 = AXIS2_PLACEMENT_3D('',#1011,#1012,#1013);
#1011 = CARTESIAN_POINT('',(0.,5.,30.));
#1012 = DIRECTION('',(0.,0.961261695938,-0.275637355817));
#1013 = DIRECTION('',(0.,0.275637355817,0.961261695938));
#1014 = ADVANCED_FACE('',(#1015),#1090,.T.);
#1015 = FACE_BOUND('',#1016,.T.);
#1016 = EDGE_LOOP('',(#1017,#1018,#1019,#1027,#1035,#1043,#1051,#1059,
    #1067,#1075,#1083,#1089));
#1017 = ORIENTED_EDGE('',*,*,#1004,.F.);
#1018 = ORIENTED_EDGE('',*,*,#744,.T.);
#1019 = ORIENTED_EDGE('',*,*,#1020,.F.);
#1020 = EDGE_CURVE('',#1021,#745,#1023,.T.);
#1021 = VERTEX_POINT('',#1022);
#1022 = CARTESIAN_POINT('',(195.,21.954949332258,33.006901844245));
#1023 = LINE('',#1024,#1025);
#1024 = CARTESIAN_POINT('',(195.,19.225233918766,23.48725288366));
#1025 = VECTOR('',#1026,1.);
#1026 = DIRECTION('',(0.,0.275637355817,0.961261695938));
#1027 = ORIENTED_EDGE('',*,*,#1028,.T.);
#1028 = EDGE_CURVE('',#1021,#1029,#1031,.T.);
#1029 = VERTEX_POINT('',#1030);
#1030 = CARTESIAN_POINT('',(195.,26.633166052977,32.182006014781));
#1031 = LINE('',#1032,#1033);
#1032 = CARTESIAN_POINT('',(195.,19.736481776669,33.398077530122));
#1033 = VECTOR('',#1034,1.);
#1034 = DIRECTION('',(0.,0.984807753012,-0.173648177667));
#1035 = ORIENTED_EDGE('',*,*,#1036,.F.);
#1036 = EDGE_CURVE('',#1037,#1029,#1039,.T.);
#1037 = VERTEX_POINT('',#1038);
#1038 = CARTESIAN_POINT('',(195.,26.668609380562,32.305611587342));
#1039 = LINE('',#1040,#1041);
#1040 = CARTESIAN_POINT('',(195.,23.774485639801,22.212602651548));
#1041 = VECTOR('',#1042,1.);
#1042 = DIRECTION('',(0.,-0.275637355817,-0.961261695938));
#1043 = ORIENTED_EDGE('',*,*,#1044,.T.);
#1044 = EDGE_CURVE('',#1037,#1045,#1047,.T.);
#1045 = VERTEX_POINT('',#1046);
#1046 = CARTESIAN_POINT('',(195.,39.744382458956,30.));
#1047 = LINE('',#1048,#1049);
#1048 = CARTESIAN_POINT('',(195.,15.322963553339,34.306155060244));
#1049 = VECTOR('',#1050,1.);
#1050 = DIRECTION('',(0.,0.984807753012,-0.173648177667));
#1051 = ORIENTED_EDGE('',*,*,#1052,.T.);
#1052 = EDGE_CURVE('',#1045,#1053,#1055,.T.);
#1053 = VERTEX_POINT('',#1054);
#1054 = CARTESIAN_POINT('',(195.,65.,30.));
#1055 = LINE('',#1056,#1057);
#1056 = CARTESIAN_POINT('',(195.,5.,30.));
#1057 = VECTOR('',#1058,1.);
#1058 = DIRECTION('',(0.,1.,0.));
#1059 = ORIENTED_EDGE('',*,*,#1060,.F.);
#1060 = EDGE_CURVE('',#1061,#1053,#1063,.T.);
#1061 = VERTEX_POINT('',#1062);
#1062 = CARTESIAN_POINT('',(195.,65.,5.));
#1063 = LINE('',#1064,#1065);
#1064 = CARTESIAN_POINT('',(195.,65.,5.));
#1065 = VECTOR('',#1066,1.);
#1066 = DIRECTION('',(0.,0.,1.));
#1067 = ORIENTED_EDGE('',*,*,#1068,.F.);
#1068 = EDGE_CURVE('',#1069,#1061,#1071,.T.);
#1069 = VERTEX_POINT('',#1070);
#1070 = CARTESIAN_POINT('',(195.,55.,5.));
#1071 = LINE('',#1072,#1073);
#1072 = CARTESIAN_POINT('',(195.,5.,5.));
#1073 = VECTOR('',#1074,1.);
#1074 = DIRECTION('',(0.,1.,0.));
#1075 = ORIENTED_EDGE('',*,*,#1076,.F.);
#1076 = EDGE_CURVE('',#1077,#1069,#1079,.T.);
#1077 = VERTEX_POINT('',#1078);
#1078 = CARTESIAN_POINT('',(195.,55.,15.928203230275));
#1079 = LINE('',#1080,#1081);
#1080 = CARTESIAN_POINT('',(195.,55.,31.030041779548));
#1081 = VECTOR('',#1082,1.);
#1082 = DIRECTION('',(0.,2.2E-16,-1.));
#1083 = ORIENTED_EDGE('',*,*,#1084,.F.);
#1084 = EDGE_CURVE('',#489,#1077,#1085,.T.);
#1085 = LINE('',#1086,#1087);
#1086 = CARTESIAN_POINT('',(195.,55.,15.928203230275));
#1087 = VECTOR('',#1088,1.);
#1088 = DIRECTION('',(0.,1.,2.2E-16));
#1089 = ORIENTED_EDGE('',*,*,#488,.F.);
#1090 = PLANE('',#1091);
#1091 = AXIS2_PLACEMENT_3D('',#1092,#1093,#1094);
#1092 = CARTESIAN_POINT('',(195.,31.571942928336,53.060083559096));
#1093 = DIRECTION('',(-1.,-0.,-0.));
#1094 = DIRECTION('',(0.,0.,-1.));
#1095 = ADVANCED_FACE('',(#1096),#1125,.T.);
#1096 = FACE_BOUND('',#1097,.F.);
#1097 = EDGE_LOOP('',(#1098,#1099,#1108,#1117,#1123,#1124));
#1098 = ORIENTED_EDGE('',*,*,#938,.T.);
#1099 = ORIENTED_EDGE('',*,*,#1100,.F.);
#1100 = EDGE_CURVE('',#1101,#939,#1103,.T.);
#1101 = VERTEX_POINT('',#1102);
#1102 = CARTESIAN_POINT('',(17.,55.,9.));
#1103 = CIRCLE('',#1104,8.);
#1104 = AXIS2_PLACEMENT_3D('',#1105,#1106,#1107);
#1105 = CARTESIAN_POINT('',(9.,55.,9.));
#1106 = DIRECTION('',(0.,-1.,0.));
#1107 = DIRECTION('',(1.,0.,0.));
#1108 = ORIENTED_EDGE('',*,*,#1109,.F.);
#1109 = EDGE_CURVE('',#1110,#1101,#1112,.T.);
#1110 = VERTEX_POINT('',#1111);
#1111 = CARTESIAN_POINT('',(15.928203230276,55.,5.));
#1112 = CIRCLE('',#1113,8.);
#1113 = AXIS2_PLACEMENT_3D('',#1114,#1115,#1116);
#1114 = CARTESIAN_POINT('',(9.,55.,9.));
#1115 = DIRECTION('',(0.,-1.,0.));
#1116 = DIRECTION('',(1.,0.,0.));
#1117 = ORIENTED_EDGE('',*,*,#1118,.F.);
#1118 = EDGE_CURVE('',#506,#1110,#1119,.T.);
#1119 = LINE('',#1120,#1121);
#1120 = CARTESIAN_POINT('',(15.928203230276,55.,5.));
#1121 = VECTOR('',#1122,1.);
#1122 = DIRECTION('',(0.,1.,2.2E-16));
#1123 = ORIENTED_EDGE('',*,*,#513,.T.);
#1124 = ORIENTED_EDGE('',*,*,#522,.T.);
#1125 = CYLINDRICAL_SURFACE('',#1126,8.);
#1126 = AXIS2_PLACEMENT_3D('',#1127,#1128,#1129);
#1127 = CARTESIAN_POINT('',(9.,55.,9.));
#1128 = DIRECTION('',(0.,1.,2.2E-16));
#1129 = DIRECTION('',(1.,0.,0.));
#1130 = ADVANCED_FACE('',(#1131),#1150,.T.);
#1131 = FACE_BOUND('',#1132,.F.);
#1132 = EDGE_LOOP('',(#1133,#1142,#1143,#1144));
#1133 = ORIENTED_EDGE('',*,*,#1134,.F.);
#1134 = EDGE_CURVE('',#1077,#1135,#1137,.T.);
#1135 = VERTEX_POINT('',#1136);
#1136 = CARTESIAN_POINT('',(184.07179676972,55.,5.));
#1137 = CIRCLE('',#1138,8.);
#1138 = AXIS2_PLACEMENT_3D('',#1139,#1140,#1141);
#1139 = CARTESIAN_POINT('',(191.,55.,9.));
#1140 = DIRECTION('',(0.,-1.,0.));
#1141 = DIRECTION('',(1.,0.,0.));
#1142 = ORIENTED_EDGE('',*,*,#1084,.F.);
#1143 = ORIENTED_EDGE('',*,*,#496,.T.);
#1144 = ORIENTED_EDGE('',*,*,#1145,.T.);
#1145 = EDGE_CURVE('',#497,#1135,#1146,.T.);
#1146 = LINE('',#1147,#1148);
#1147 = CARTESIAN_POINT('',(184.07179676972,55.,5.));
#1148 = VECTOR('',#1149,1.);
#1149 = DIRECTION('',(0.,1.,2.2E-16));
#1150 = CYLINDRICAL_SURFACE('',#1151,8.);
#1151 = AXIS2_PLACEMENT_3D('',#1152,#1153,#1154);
#1152 = CARTESIAN_POINT('',(191.,55.,9.));
#1153 = DIRECTION('',(-0.,1.,-0.));
#1154 = DIRECTION('',(1.,0.,0.));
#1155 = ADVANCED_FACE('',(#1156),#1181,.T.);
#1156 = FACE_BOUND('',#1157,.T.);
#1157 = EDGE_LOOP('',(#1158,#1159,#1165,#1166,#1167,#1168,#1174,#1175));
#1158 = ORIENTED_EDGE('',*,*,#954,.F.);
#1159 = ORIENTED_EDGE('',*,*,#1160,.F.);
#1160 = EDGE_CURVE('',#1110,#947,#1161,.T.);
#1161 = LINE('',#1162,#1163);
#1162 = CARTESIAN_POINT('',(7.,55.,5.));
#1163 = VECTOR('',#1164,1.);
#1164 = DIRECTION('',(-1.,0.,0.));
#1165 = ORIENTED_EDGE('',*,*,#1118,.F.);
#1166 = ORIENTED_EDGE('',*,*,#505,.T.);
#1167 = ORIENTED_EDGE('',*,*,#1145,.T.);
#1168 = ORIENTED_EDGE('',*,*,#1169,.F.);
#1169 = EDGE_CURVE('',#1069,#1135,#1170,.T.);
#1170 = LINE('',#1171,#1172);
#1171 = CARTESIAN_POINT('',(98.,55.,5.));
#1172 = VECTOR('',#1173,1.);
#1173 = DIRECTION('',(-1.,0.,0.));
#1174 = ORIENTED_EDGE('',*,*,#1068,.T.);
#1175 = ORIENTED_EDGE('',*,*,#1176,.F.);
#1176 = EDGE_CURVE('',#955,#1061,#1177,.T.);
#1177 = LINE('',#1178,#1179);
#1178 = CARTESIAN_POINT('',(5.,65.,5.));
#1179 = VECTOR('',#1180,1.);
#1180 = DIRECTION('',(1.,0.,0.));
#1181 = PLANE('',#1182);
#1182 = AXIS2_PLACEMENT_3D('',#1183,#1184,#1185);
#1183 = CARTESIAN_POINT('',(5.,5.,5.));
#1184 = DIRECTION('',(0.,0.,1.));
#1185 = DIRECTION('',(1.,0.,0.));
#1186 = ADVANCED_FACE('',(#1187),#1206,.F.);
#1187 = FACE_BOUND('',#1188,.T.);
#1188 = EDGE_LOOP('',(#1189,#1197,#1198,#1199));
#1189 = ORIENTED_EDGE('',*,*,#1190,.T.);
#1190 = EDGE_CURVE('',#1191,#542,#1193,.T.);
#1191 = VERTEX_POINT('',#1192);
#1192 = CARTESIAN_POINT('',(13.2,21.,9.));
#1193 = LINE('',#1194,#1195);
#1194 = CARTESIAN_POINT('',(13.2,21.,9.));
#1195 = VECTOR('',#1196,1.);
#1196 = DIRECTION('',(0.,-1.,0.));
#1197 = ORIENTED_EDGE('',*,*,#541,.T.);
#1198 = ORIENTED_EDGE('',*,*,#1190,.F.);
#1199 = ORIENTED_EDGE('',*,*,#1200,.F.);
#1200 = EDGE_CURVE('',#1191,#1191,#1201,.T.);
#1201 = CIRCLE('',#1202,4.2);
#1202 = AXIS2_PLACEMENT_3D('',#1203,#1204,#1205);
#1203 = CARTESIAN_POINT('',(9.,21.,9.));
#1204 = DIRECTION('',(0.,-1.,0.));
#1205 = DIRECTION('',(1.,0.,0.));
#1206 = CYLINDRICAL_SURFACE('',#1207,4.2);
#1207 = AXIS2_PLACEMENT_3D('',#1208,#1209,#1210);
#1208 = CARTESIAN_POINT('',(9.,21.,9.));
#1209 = DIRECTION('',(-0.,1.,-0.));
#1210 = DIRECTION('',(1.,0.,0.));
#1211 = ADVANCED_FACE('',(#1212),#1231,.F.);
#1212 = FACE_BOUND('',#1213,.T.);
#1213 = EDGE_LOOP('',(#1214,#1222,#1223,#1224));
#1214 = ORIENTED_EDGE('',*,*,#1215,.T.);
#1215 = EDGE_CURVE('',#1216,#553,#1218,.T.);
#1216 = VERTEX_POINT('',#1217);
#1217 = CARTESIAN_POINT('',(195.2,21.,9.));
#1218 = LINE('',#1219,#1220);
#1219 = CARTESIAN_POINT('',(195.2,21.,9.));
#1220 = VECTOR('',#1221,1.);
#1221 = DIRECTION('',(0.,-1.,0.));
#1222 = ORIENTED_EDGE('',*,*,#552,.T.);
#1223 = ORIENTED_EDGE('',*,*,#1215,.F.);
#1224 = ORIENTED_EDGE('',*,*,#1225,.F.);
#1225 = EDGE_CURVE('',#1216,#1216,#1226,.T.);
#1226 = CIRCLE('',#1227,4.2);
#1227 = AXIS2_PLACEMENT_3D('',#1228,#1229,#1230);
#1228 = CARTESIAN_POINT('',(191.,21.,9.));
#1229 = DIRECTION('',(0.,-1.,0.));
#1230 = DIRECTION('',(1.,0.,0.));
#1231 = CYLINDRICAL_SURFACE('',#1232,4.2);
#1232 = AXIS2_PLACEMENT_3D('',#1233,#1234,#1235);
#1233 = CARTESIAN_POINT('',(191.,21.,9.));
#1234 = DIRECTION('',(-0.,1.,-0.));
#1235 = DIRECTION('',(1.,0.,0.));
#1236 = ADVANCED_FACE('',(#1237),#1307,.F.);
#1237 = FACE_BOUND('',#1238,.F.);
#1238 = EDGE_LOOP('',(#1239,#1240,#1248,#1257,#1266,#1272,#1273,#1274,
    #1282,#1291,#1300,#1306));
#1239 = ORIENTED_EDGE('',*,*,#1020,.F.);
#1240 = ORIENTED_EDGE('',*,*,#1241,.F.);
#1241 = EDGE_CURVE('',#1242,#1021,#1244,.T.);
#1242 = VERTEX_POINT('',#1243);
#1243 = CARTESIAN_POINT('',(121.98211992367,21.954949332258,
    33.006901844245));
#1244 = LINE('',#1245,#1246);
#1245 = CARTESIAN_POINT('',(5.,21.954949332258,33.006901844245));
#1246 = VECTOR('',#1247,1.);
#1247 = DIRECTION('',(1.,0.,0.));
#1248 = ORIENTED_EDGE('',*,*,#1249,.F.);
#1249 = EDGE_CURVE('',#1250,#1242,#1252,.T.);
#1250 = VERTEX_POINT('',#1251);
#1251 = CARTESIAN_POINT('',(124.,23.419054463164,38.112843225069));
#1252 = CIRCLE('',#1253,8.);
#1253 = AXIS2_PLACEMENT_3D('',#1254,#1255,#1256);
#1254 = CARTESIAN_POINT('',(116.,23.419054463164,38.112843225069));
#1255 = DIRECTION('',(0.,0.961261695938,-0.275637355817));
#1256 = DIRECTION('',(1.,0.,0.));
#1257 = ORIENTED_EDGE('',*,*,#1258,.F.);
#1258 = EDGE_CURVE('',#1259,#1250,#1261,.T.);
#1259 = VERTEX_POINT('',#1260);
#1260 = CARTESIAN_POINT('',(110.01788007632,21.954949332258,
    33.006901844245));
#1261 = CIRCLE('',#1262,8.);
#1262 = AXIS2_PLACEMENT_3D('',#1263,#1264,#1265);
#1263 = CARTESIAN_POINT('',(116.,23.419054463164,38.112843225069));
#1264 = DIRECTION('',(0.,0.961261695938,-0.275637355817));
#1265 = DIRECTION('',(1.,0.,0.));
#1266 = ORIENTED_EDGE('',*,*,#1267,.F.);
#1267 = EDGE_CURVE('',#920,#1259,#1268,.T.);
#1268 = LINE('',#1269,#1270);
#1269 = CARTESIAN_POINT('',(5.,21.954949332258,33.006901844245));
#1270 = VECTOR('',#1271,1.);
#1271 = DIRECTION('',(1.,0.,0.));
#1272 = ORIENTED_EDGE('',*,*,#929,.T.);
#1273 = ORIENTED_EDGE('',*,*,#660,.F.);
#1274 = ORIENTED_EDGE('',*,*,#1275,.T.);
#1275 = EDGE_CURVE('',#653,#1276,#1278,.T.);
#1276 = VERTEX_POINT('',#1277);
#1277 = CARTESIAN_POINT('',(84.049200293215,45.410782721381,
    114.8071139978));
#1278 = LINE('',#1279,#1280);
#1279 = CARTESIAN_POINT('',(5.,45.410782721381,114.8071139978));
#1280 = VECTOR('',#1281,1.);
#1281 = DIRECTION('',(1.,0.,0.));
#1282 = ORIENTED_EDGE('',*,*,#1283,.F.);
#1283 = EDGE_CURVE('',#1284,#1276,#1286,.T.);
#1284 = VERTEX_POINT('',#1285);
#1285 = CARTESIAN_POINT('',(96.,43.493345344954,108.12021519608));
#1286 = CIRCLE('',#1287,8.);
#1287 = AXIS2_PLACEMENT_3D('',#1288,#1289,#1290);
#1288 = CARTESIAN_POINT('',(88.,43.493345344954,108.12021519608));
#1289 = DIRECTION('',(0.,0.961261695938,-0.275637355817));
#1290 = DIRECTION('',(1.,0.,0.));
#1291 = ORIENTED_EDGE('',*,*,#1292,.F.);
#1292 = EDGE_CURVE('',#1293,#1284,#1295,.T.);
#1293 = VERTEX_POINT('',#1294);
#1294 = CARTESIAN_POINT('',(91.950799706785,45.410782721381,
    114.8071139978));
#1295 = CIRCLE('',#1296,8.);
#1296 = AXIS2_PLACEMENT_3D('',#1297,#1298,#1299);
#1297 = CARTESIAN_POINT('',(88.,43.493345344954,108.12021519608));
#1298 = DIRECTION('',(0.,0.961261695938,-0.275637355817));
#1299 = DIRECTION('',(1.,0.,0.));
#1300 = ORIENTED_EDGE('',*,*,#1301,.T.);
#1301 = EDGE_CURVE('',#1293,#753,#1302,.T.);
#1302 = LINE('',#1303,#1304);
#1303 = CARTESIAN_POINT('',(5.,45.410782721381,114.8071139978));
#1304 = VECTOR('',#1305,1.);
#1305 = DIRECTION('',(1.,0.,0.));
#1306 = ORIENTED_EDGE('',*,*,#752,.F.);
#1307 = PLANE('',#1308);
#1308 = AXIS2_PLACEMENT_3D('',#1309,#1310,#1311);
#1309 = CARTESIAN_POINT('',(5.,19.225233918766,23.48725288366));
#1310 = DIRECTION('',(0.,0.961261695938,-0.275637355817));
#1311 = DIRECTION('',(0.,0.275637355817,0.961261695938));
#1312 = ADVANCED_FACE('',(#1313),#1331,.F.);
#1313 = FACE_BOUND('',#1314,.F.);
#1314 = EDGE_LOOP('',(#1315,#1316,#1324,#1330));
#1315 = ORIENTED_EDGE('',*,*,#652,.F.);
#1316 = ORIENTED_EDGE('',*,*,#1317,.F.);
#1317 = EDGE_CURVE('',#1318,#644,#1320,.T.);
#1318 = VERTEX_POINT('',#1319);
#1319 = CARTESIAN_POINT('',(84.049200293216,45.40029091064,
    114.81012247611));
#1320 = LINE('',#1321,#1322);
#1321 = CARTESIAN_POINT('',(5.,45.40029091064,114.81012247611));
#1322 = VECTOR('',#1323,1.);
#1323 = DIRECTION('',(-1.,0.,0.));
#1324 = ORIENTED_EDGE('',*,*,#1325,.T.);
#1325 = EDGE_CURVE('',#1318,#1276,#1326,.T.);
#1326 = LINE('',#1327,#1328);
#1327 = CARTESIAN_POINT('',(84.049200293215,49.317437376427,
    113.68689880171));
#1328 = VECTOR('',#1329,1.);
#1329 = DIRECTION('',(0.,0.961261695938,-0.275637355817));
#1330 = ORIENTED_EDGE('',*,*,#1275,.F.);
#1331 = PLANE('',#1332);
#1332 = AXIS2_PLACEMENT_3D('',#1333,#1334,#1335);
#1333 = CARTESIAN_POINT('',(5.,26.185548802615,120.31986111414));
#1334 = DIRECTION('',(0.,0.275637355817,0.961261695938));
#1335 = DIRECTION('',(1.,0.,0.));
#1336 = ADVANCED_FACE('',(#1337),#1363,.F.);
#1337 = FACE_BOUND('',#1338,.F.);
#1338 = EDGE_LOOP('',(#1339,#1340,#1348,#1355,#1356,#1357));
#1339 = ORIENTED_EDGE('',*,*,#769,.F.);
#1340 = ORIENTED_EDGE('',*,*,#1341,.T.);
#1341 = EDGE_CURVE('',#762,#1342,#1344,.T.);
#1342 = VERTEX_POINT('',#1343);
#1343 = CARTESIAN_POINT('',(91.950799706784,45.40029091064,
    114.81012247611));
#1344 = LINE('',#1345,#1346);
#1345 = CARTESIAN_POINT('',(5.,45.40029091064,114.81012247611));
#1346 = VECTOR('',#1347,1.);
#1347 = DIRECTION('',(-1.,0.,0.));
#1348 = ORIENTED_EDGE('',*,*,#1349,.F.);
#1349 = EDGE_CURVE('',#1318,#1342,#1350,.T.);
#1350 = CIRCLE('',#1351,8.);
#1351 = AXIS2_PLACEMENT_3D('',#1352,#1353,#1354);
#1352 = CARTESIAN_POINT('',(88.,43.482853534212,108.1232236744));
#1353 = DIRECTION('',(0.,0.961261695938,-0.275637355817));
#1354 = DIRECTION('',(1.,0.,0.));
#1355 = ORIENTED_EDGE('',*,*,#1317,.T.);
#1356 = ORIENTED_EDGE('',*,*,#643,.F.);
#1357 = ORIENTED_EDGE('',*,*,#1358,.T.);
#1358 = EDGE_CURVE('',#636,#770,#1359,.T.);
#1359 = LINE('',#1360,#1361);
#1360 = CARTESIAN_POINT('',(5.,47.040434523589,120.52998300189));
#1361 = VECTOR('',#1362,1.);
#1362 = DIRECTION('',(1.,0.,0.));
#1363 = PLANE('',#1364);
#1364 = AXIS2_PLACEMENT_3D('',#1365,#1366,#1367);
#1365 = CARTESIAN_POINT('',(5.,44.284060965419,110.91736604251));
#1366 = DIRECTION('',(0.,0.961261695938,-0.275637355817));
#1367 = DIRECTION('',(0.,0.275637355817,0.961261695938));
#1368 = ADVANCED_FACE('',(#1369),#1380,.F.);
#1369 = FACE_BOUND('',#1370,.F.);
#1370 = EDGE_LOOP('',(#1371,#1372,#1378,#1379));
#1371 = ORIENTED_EDGE('',*,*,#635,.F.);
#1372 = ORIENTED_EDGE('',*,*,#1373,.T.);
#1373 = EDGE_CURVE('',#627,#779,#1374,.T.);
#1374 = LINE('',#1375,#1376);
#1375 = CARTESIAN_POINT('',(2.5,32.180853023839,124.79089943125));
#1376 = VECTOR('',#1377,1.);
#1377 = DIRECTION('',(1.,0.,0.));
#1378 = ORIENTED_EDGE('',*,*,#778,.T.);
#1379 = ORIENTED_EDGE('',*,*,#1358,.F.);
#1380 = PLANE('',#1381);
#1381 = AXIS2_PLACEMENT_3D('',#1382,#1383,#1384);
#1382 = CARTESIAN_POINT('',(5.,31.75637355817,124.91261695938));
#1383 = DIRECTION('',(0.,0.275637355817,0.961261695938));
#1384 = DIRECTION('',(1.,0.,0.));
#1385 = ADVANCED_FACE('',(#1386),#1392,.F.);
#1386 = FACE_BOUND('',#1387,.F.);
#1387 = EDGE_LOOP('',(#1388,#1389,#1390,#1391));
#1388 = ORIENTED_EDGE('',*,*,#626,.F.);
#1389 = ORIENTED_EDGE('',*,*,#695,.F.);
#1390 = ORIENTED_EDGE('',*,*,#786,.F.);
#1391 = ORIENTED_EDGE('',*,*,#1373,.F.);
#1392 = PLANE('',#1393);
#1393 = AXIS2_PLACEMENT_3D('',#1394,#1395,#1396);
#1394 = CARTESIAN_POINT('',(0.,5.,30.));
#1395 = DIRECTION('',(0.,0.961261695938,-0.275637355817));
#1396 = DIRECTION('',(0.,0.275637355817,0.961261695938));
#1397 = ADVANCED_FACE('',(#1398,#1401),#1412,.T.);
#1398 = FACE_BOUND('',#1399,.T.);
#1399 = EDGE_LOOP('',(#1400));
#1400 = ORIENTED_EDGE('',*,*,#609,.T.);
#1401 = FACE_BOUND('',#1402,.T.);
#1402 = EDGE_LOOP('',(#1403));
#1403 = ORIENTED_EDGE('',*,*,#1404,.T.);
#1404 = EDGE_CURVE('',#1405,#1405,#1407,.T.);
#1405 = VERTEX_POINT('',#1406);
#1406 = CARTESIAN_POINT('',(13.2,32.280868689416,125.27438321268));
#1407 = CIRCLE('',#1408,4.2);
#1408 = AXIS2_PLACEMENT_3D('',#1409,#1410,#1411);
#1409 = CARTESIAN_POINT('',(9.,32.280868689416,125.27438321268));
#1410 = DIRECTION('',(0.,0.961261695938,-0.275637355817));
#1411 = DIRECTION('',(1.,0.,0.));
#1412 = PLANE('',#1413);
#1413 = AXIS2_PLACEMENT_3D('',#1414,#1415,#1416);
#1414 = CARTESIAN_POINT('',(9.,32.319812864987,125.41019769307));
#1415 = DIRECTION('',(0.,-0.961261695938,0.275637355817));
#1416 = DIRECTION('',(1.,0.,0.));
#1417 = ADVANCED_FACE('',(#1418),#1429,.F.);
#1418 = FACE_BOUND('',#1419,.F.);
#1419 = EDGE_LOOP('',(#1420,#1426,#1427,#1428));
#1420 = ORIENTED_EDGE('',*,*,#1421,.F.);
#1421 = EDGE_CURVE('',#1342,#1293,#1422,.T.);
#1422 = LINE('',#1423,#1424);
#1423 = CARTESIAN_POINT('',(91.950799706785,49.317437376427,
    113.68689880171));
#1424 = VECTOR('',#1425,1.);
#1425 = DIRECTION('',(0.,0.961261695938,-0.275637355817));
#1426 = ORIENTED_EDGE('',*,*,#1341,.F.);
#1427 = ORIENTED_EDGE('',*,*,#761,.T.);
#1428 = ORIENTED_EDGE('',*,*,#1301,.F.);
#1429 = PLANE('',#1430);
#1430 = AXIS2_PLACEMENT_3D('',#1431,#1432,#1433);
#1431 = CARTESIAN_POINT('',(5.,26.185548802615,120.31986111414));
#1432 = DIRECTION('',(0.,0.275637355817,0.961261695938));
#1433 = DIRECTION('',(1.,0.,0.));
#1434 = ADVANCED_FACE('',(#1435,#1438),#1449,.T.);
#1435 = FACE_BOUND('',#1436,.T.);
#1436 = EDGE_LOOP('',(#1437));
#1437 = ORIENTED_EDGE('',*,*,#718,.T.);
#1438 = FACE_BOUND('',#1439,.T.);
#1439 = EDGE_LOOP('',(#1440));
#1440 = ORIENTED_EDGE('',*,*,#1441,.T.);
#1441 = EDGE_CURVE('',#1442,#1442,#1444,.T.);
#1442 = VERTEX_POINT('',#1443);
#1443 = CARTESIAN_POINT('',(195.2,32.280868689416,125.27438321268));
#1444 = CIRCLE('',#1445,4.2);
#1445 = AXIS2_PLACEMENT_3D('',#1446,#1447,#1448);
#1446 = CARTESIAN_POINT('',(191.,32.280868689416,125.27438321268));
#1447 = DIRECTION('',(0.,0.961261695938,-0.275637355817));
#1448 = DIRECTION('',(1.,0.,0.));
#1449 = PLANE('',#1450);
#1450 = AXIS2_PLACEMENT_3D('',#1451,#1452,#1453);
#1451 = CARTESIAN_POINT('',(191.,32.319812864987,125.41019769307));
#1452 = DIRECTION('',(0.,-0.961261695938,0.275637355817));
#1453 = DIRECTION('',(1.,0.,0.));
#1454 = ADVANCED_FACE('',(#1455),#1458,.F.);
#1455 = FACE_BOUND('',#1456,.T.);
#1456 = EDGE_LOOP('',(#1457));
#1457 = ORIENTED_EDGE('',*,*,#828,.F.);
#1458 = PLANE('',#1459);
#1459 = AXIS2_PLACEMENT_3D('',#1460,#1461,#1462);
#1460 = CARTESIAN_POINT('',(14.,18.,0.2));
#1461 = DIRECTION('',(0.,0.,1.));
#1462 = DIRECTION('',(1.,0.,0.));
#1463 = ADVANCED_FACE('',(#1464),#1467,.F.);
#1464 = FACE_BOUND('',#1465,.T.);
#1465 = EDGE_LOOP('',(#1466));
#1466 = ORIENTED_EDGE('',*,*,#853,.F.);
#1467 = PLANE('',#1468);
#1468 = AXIS2_PLACEMENT_3D('',#1469,#1470,#1471);
#1469 = CARTESIAN_POINT('',(186.,18.,0.2));
#1470 = DIRECTION('',(0.,0.,1.));
#1471 = DIRECTION('',(1.,0.,0.));
#1472 = ADVANCED_FACE('',(#1473),#1476,.F.);
#1473 = FACE_BOUND('',#1474,.T.);
#1474 = EDGE_LOOP('',(#1475));
#1475 = ORIENTED_EDGE('',*,*,#878,.F.);
#1476 = PLANE('',#1477);
#1477 = AXIS2_PLACEMENT_3D('',#1478,#1479,#1480);
#1478 = CARTESIAN_POINT('',(14.,56.,0.2));
#1479 = DIRECTION('',(0.,0.,1.));
#1480 = DIRECTION('',(1.,0.,0.));
#1481 = ADVANCED_FACE('',(#1482),#1485,.F.);
#1482 = FACE_BOUND('',#1483,.T.);
#1483 = EDGE_LOOP('',(#1484));
#1484 = ORIENTED_EDGE('',*,*,#903,.F.);
#1485 = PLANE('',#1486);
#1486 = AXIS2_PLACEMENT_3D('',#1487,#1488,#1489);
#1487 = CARTESIAN_POINT('',(186.,56.,0.2));
#1488 = DIRECTION('',(0.,0.,1.));
#1489 = DIRECTION('',(1.,0.,0.));
#1490 = ADVANCED_FACE('',(#1491),#1527,.F.);
#1491 = FACE_BOUND('',#1492,.F.);
#1492 = EDGE_LOOP('',(#1493,#1494,#1495,#1504,#1512,#1519,#1520,#1521));
#1493 = ORIENTED_EDGE('',*,*,#919,.F.);
#1494 = ORIENTED_EDGE('',*,*,#1267,.T.);
#1495 = ORIENTED_EDGE('',*,*,#1496,.F.);
#1496 = EDGE_CURVE('',#1497,#1259,#1499,.T.);
#1497 = VERTEX_POINT('',#1498);
#1498 = CARTESIAN_POINT('',(109.66646581859,25.952859405235,
    32.301962431933));
#1499 = ELLIPSE('',#1500,76.534177868045,8.);
#1500 = AXIS2_PLACEMENT_3D('',#1501,#1502,#1503);
#1501 = CARTESIAN_POINT('',(116.,71.998841642215,24.182813410331));
#1502 = DIRECTION('',(0.,0.173648177667,0.984807753012));
#1503 = DIRECTION('',(0.,0.984807753012,-0.173648177667));
#1504 = ORIENTED_EDGE('',*,*,#1505,.F.);
#1505 = EDGE_CURVE('',#1506,#1497,#1508,.T.);
#1506 = VERTEX_POINT('',#1507);
#1507 = CARTESIAN_POINT('',(122.3335341814,25.952859405235,
    32.301962431933));
#1508 = LINE('',#1509,#1510);
#1509 = CARTESIAN_POINT('',(60.5,25.952859405235,32.301962431933));
#1510 = VECTOR('',#1511,1.);
#1511 = DIRECTION('',(-1.,0.,0.));
#1512 = ORIENTED_EDGE('',*,*,#1513,.F.);
#1513 = EDGE_CURVE('',#1242,#1506,#1514,.T.);
#1514 = ELLIPSE('',#1515,76.534177868045,8.);
#1515 = AXIS2_PLACEMENT_3D('',#1516,#1517,#1518);
#1516 = CARTESIAN_POINT('',(116.,71.998841642215,24.182813410331));
#1517 = DIRECTION('',(0.,0.173648177667,0.984807753012));
#1518 = DIRECTION('',(0.,0.984807753012,-0.173648177667));
#1519 = ORIENTED_EDGE('',*,*,#1241,.T.);
#1520 = ORIENTED_EDGE('',*,*,#1028,.T.);
#1521 = ORIENTED_EDGE('',*,*,#1522,.F.);
#1522 = EDGE_CURVE('',#922,#1029,#1523,.T.);
#1523 = LINE('',#1524,#1525);
#1524 = CARTESIAN_POINT('',(2.5,26.633166052977,32.182006014781));
#1525 = VECTOR('',#1526,1.);
#1526 = DIRECTION('',(1.,0.,0.));
#1527 = PLANE('',#1528);
#1528 = AXIS2_PLACEMENT_3D('',#1529,#1530,#1531);
#1529 = CARTESIAN_POINT('',(5.,19.736481776669,33.398077530122));
#1530 = DIRECTION('',(0.,0.173648177667,0.984807753012));
#1531 = DIRECTION('',(1.,0.,0.));
#1532 = ADVANCED_FACE('',(#1533),#1544,.T.);
#1533 = FACE_BOUND('',#1534,.T.);
#1534 = EDGE_LOOP('',(#1535,#1536,#1537,#1543));
#1535 = ORIENTED_EDGE('',*,*,#1522,.F.);
#1536 = ORIENTED_EDGE('',*,*,#986,.T.);
#1537 = ORIENTED_EDGE('',*,*,#1538,.T.);
#1538 = EDGE_CURVE('',#979,#1037,#1539,.T.);
#1539 = LINE('',#1540,#1541);
#1540 = CARTESIAN_POINT('',(2.5,26.668609380562,32.305611587342));
#1541 = VECTOR('',#1542,1.);
#1542 = DIRECTION('',(1.,0.,0.));
#1543 = ORIENTED_EDGE('',*,*,#1036,.T.);
#1544 = PLANE('',#1545);
#1545 = AXIS2_PLACEMENT_3D('',#1546,#1547,#1548);
#1546 = CARTESIAN_POINT('',(0.,24.031542398458,23.109066104575));
#1547 = DIRECTION('',(0.,0.961261695938,-0.275637355817));
#1548 = DIRECTION('',(0.,0.275637355817,0.961261695938));
#1549 = ADVANCED_FACE('',(#1550),#1561,.F.);
#1550 = FACE_BOUND('',#1551,.F.);
#1551 = EDGE_LOOP('',(#1552,#1553,#1554,#1555));
#1552 = ORIENTED_EDGE('',*,*,#978,.F.);
#1553 = ORIENTED_EDGE('',*,*,#1538,.T.);
#1554 = ORIENTED_EDGE('',*,*,#1044,.T.);
#1555 = ORIENTED_EDGE('',*,*,#1556,.T.);
#1556 = EDGE_CURVE('',#1045,#971,#1557,.T.);
#1557 = LINE('',#1558,#1559);
#1558 = CARTESIAN_POINT('',(5.,39.744382458956,30.));
#1559 = VECTOR('',#1560,1.);
#1560 = DIRECTION('',(-1.,0.,0.));
#1561 = PLANE('',#1562);
#1562 = AXIS2_PLACEMENT_3D('',#1563,#1564,#1565);
#1563 = CARTESIAN_POINT('',(5.,15.322963553339,34.306155060244));
#1564 = DIRECTION('',(0.,0.173648177667,0.984807753012));
#1565 = DIRECTION('',(1.,0.,0.));
#1566 = ADVANCED_FACE('',(#1567),#1578,.F.);
#1567 = FACE_BOUND('',#1568,.F.);
#1568 = EDGE_LOOP('',(#1569,#1570,#1571,#1572));
#1569 = ORIENTED_EDGE('',*,*,#970,.F.);
#1570 = ORIENTED_EDGE('',*,*,#1556,.F.);
#1571 = ORIENTED_EDGE('',*,*,#1052,.T.);
#1572 = ORIENTED_EDGE('',*,*,#1573,.F.);
#1573 = EDGE_CURVE('',#963,#1053,#1574,.T.);
#1574 = LINE('',#1575,#1576);
#1575 = CARTESIAN_POINT('',(5.,65.,30.));
#1576 = VECTOR('',#1577,1.);
#1577 = DIRECTION('',(1.,0.,0.));
#1578 = PLANE('',#1579);
#1579 = AXIS2_PLACEMENT_3D('',#1580,#1581,#1582);
#1580 = CARTESIAN_POINT('',(5.,5.,30.));
#1581 = DIRECTION('',(0.,0.,1.));
#1582 = DIRECTION('',(1.,0.,0.));
#1583 = ADVANCED_FACE('',(#1584),#1590,.F.);
#1584 = FACE_BOUND('',#1585,.F.);
#1585 = EDGE_LOOP('',(#1586,#1587,#1588,#1589));
#1586 = ORIENTED_EDGE('',*,*,#1176,.F.);
#1587 = ORIENTED_EDGE('',*,*,#962,.T.);
#1588 = ORIENTED_EDGE('',*,*,#1573,.T.);
#1589 = ORIENTED_EDGE('',*,*,#1060,.F.);
#1590 = PLANE('',#1591);
#1591 = AXIS2_PLACEMENT_3D('',#1592,#1593,#1594);
#1592 = CARTESIAN_POINT('',(5.,65.,5.));
#1593 = DIRECTION('',(0.,1.,0.));
#1594 = DIRECTION('',(0.,0.,1.));
#1595 = ADVANCED_FACE('',(#1596),#1602,.F.);
#1596 = FACE_BOUND('',#1597,.F.);
#1597 = EDGE_LOOP('',(#1598,#1599,#1600,#1601));
#1598 = ORIENTED_EDGE('',*,*,#1109,.T.);
#1599 = ORIENTED_EDGE('',*,*,#1100,.T.);
#1600 = ORIENTED_EDGE('',*,*,#946,.F.);
#1601 = ORIENTED_EDGE('',*,*,#1160,.F.);
#1602 = PLANE('',#1603);
#1603 = AXIS2_PLACEMENT_3D('',#1604,#1605,#1606);
#1604 = CARTESIAN_POINT('',(9.,55.,9.));
#1605 = DIRECTION('',(0.,-1.,0.));
#1606 = DIRECTION('',(1.,0.,0.));
#1607 = ADVANCED_FACE('',(#1608),#1613,.F.);
#1608 = FACE_BOUND('',#1609,.F.);
#1609 = EDGE_LOOP('',(#1610,#1611,#1612));
#1610 = ORIENTED_EDGE('',*,*,#1076,.F.);
#1611 = ORIENTED_EDGE('',*,*,#1134,.T.);
#1612 = ORIENTED_EDGE('',*,*,#1169,.F.);
#1613 = PLANE('',#1614);
#1614 = AXIS2_PLACEMENT_3D('',#1615,#1616,#1617);
#1615 = CARTESIAN_POINT('',(191.,55.,9.));
#1616 = DIRECTION('',(0.,-1.,0.));
#1617 = DIRECTION('',(1.,0.,0.));
#1618 = ADVANCED_FACE('',(#1619),#1622,.T.);
#1619 = FACE_BOUND('',#1620,.F.);
#1620 = EDGE_LOOP('',(#1621));
#1621 = ORIENTED_EDGE('',*,*,#1200,.F.);
#1622 = PLANE('',#1623);
#1623 = AXIS2_PLACEMENT_3D('',#1624,#1625,#1626);
#1624 = CARTESIAN_POINT('',(9.,21.,9.));
#1625 = DIRECTION('',(0.,-1.,0.));
#1626 = DIRECTION('',(1.,0.,0.));
#1627 = ADVANCED_FACE('',(#1628),#1631,.T.);
#1628 = FACE_BOUND('',#1629,.F.);
#1629 = EDGE_LOOP('',(#1630));
#1630 = ORIENTED_EDGE('',*,*,#1225,.F.);
#1631 = PLANE('',#1632);
#1632 = AXIS2_PLACEMENT_3D('',#1633,#1634,#1635);
#1633 = CARTESIAN_POINT('',(191.,21.,9.));
#1634 = DIRECTION('',(0.,-1.,0.));
#1635 = DIRECTION('',(1.,0.,0.));
#1636 = ADVANCED_FACE('',(#1637),#1660,.T.);
#1637 = FACE_BOUND('',#1638,.F.);
#1638 = EDGE_LOOP('',(#1639,#1640,#1648,#1655,#1656,#1657,#1658,#1659));
#1639 = ORIENTED_EDGE('',*,*,#1292,.T.);
#1640 = ORIENTED_EDGE('',*,*,#1641,.T.);
#1641 = EDGE_CURVE('',#1284,#1642,#1644,.T.);
#1642 = VERTEX_POINT('',#1643);
#1643 = CARTESIAN_POINT('',(96.,32.019812864987,111.41019769307));
#1644 = LINE('',#1645,#1646);
#1645 = CARTESIAN_POINT('',(96.,47.4,107.));
#1646 = VECTOR('',#1647,1.);
#1647 = DIRECTION('',(0.,-0.961261695938,0.275637355817));
#1648 = ORIENTED_EDGE('',*,*,#1649,.T.);
#1649 = EDGE_CURVE('',#1642,#1642,#1650,.T.);
#1650 = CIRCLE('',#1651,8.);
#1651 = AXIS2_PLACEMENT_3D('',#1652,#1653,#1654);
#1652 = CARTESIAN_POINT('',(88.,32.019812864987,111.41019769307));
#1653 = DIRECTION('',(0.,-0.961261695938,0.275637355817));
#1654 = DIRECTION('',(1.,0.,0.));
#1655 = ORIENTED_EDGE('',*,*,#1641,.F.);
#1656 = ORIENTED_EDGE('',*,*,#1283,.T.);
#1657 = ORIENTED_EDGE('',*,*,#1325,.F.);
#1658 = ORIENTED_EDGE('',*,*,#1349,.T.);
#1659 = ORIENTED_EDGE('',*,*,#1421,.T.);
#1660 = CYLINDRICAL_SURFACE('',#1661,8.);
#1661 = AXIS2_PLACEMENT_3D('',#1662,#1663,#1664);
#1662 = CARTESIAN_POINT('',(88.,47.4,107.));
#1663 = DIRECTION('',(-0.,0.961261695938,-0.275637355817));
#1664 = DIRECTION('',(1.,0.,0.));
#1665 = ADVANCED_FACE('',(#1666),#1695,.T.);
#1666 = FACE_BOUND('',#1667,.F.);
#1667 = EDGE_LOOP('',(#1668,#1669,#1677,#1684,#1685,#1686,#1687,#1694));
#1668 = ORIENTED_EDGE('',*,*,#1258,.T.);
#1669 = ORIENTED_EDGE('',*,*,#1670,.T.);
#1670 = EDGE_CURVE('',#1250,#1671,#1673,.T.);
#1671 = VERTEX_POINT('',#1672);
#1672 = CARTESIAN_POINT('',(124.,10.381794151486,41.851217462379));
#1673 = LINE('',#1674,#1675);
#1674 = CARTESIAN_POINT('',(124.,27.3,37.));
#1675 = VECTOR('',#1676,1.);
#1676 = DIRECTION('',(0.,-0.961261695938,0.275637355817));
#1677 = ORIENTED_EDGE('',*,*,#1678,.T.);
#1678 = EDGE_CURVE('',#1671,#1671,#1679,.T.);
#1679 = CIRCLE('',#1680,8.);
#1680 = AXIS2_PLACEMENT_3D('',#1681,#1682,#1683);
#1681 = CARTESIAN_POINT('',(116.,10.381794151486,41.851217462379));
#1682 = DIRECTION('',(0.,-0.961261695938,0.275637355817));
#1683 = DIRECTION('',(1.,0.,0.));
#1684 = ORIENTED_EDGE('',*,*,#1670,.F.);
#1685 = ORIENTED_EDGE('',*,*,#1249,.T.);
#1686 = ORIENTED_EDGE('',*,*,#1513,.T.);
#1687 = ORIENTED_EDGE('',*,*,#1688,.F.);
#1688 = EDGE_CURVE('',#1497,#1506,#1689,.T.);
#1689 = CIRCLE('',#1690,8.);
#1690 = AXIS2_PLACEMENT_3D('',#1691,#1692,#1693);
#1691 = CARTESIAN_POINT('',(116.,27.3,37.));
#1692 = DIRECTION('',(0.,-0.961261695938,0.275637355817));
#1693 = DIRECTION('',(1.,0.,0.));
#1694 = ORIENTED_EDGE('',*,*,#1496,.T.);
#1695 = CYLINDRICAL_SURFACE('',#1696,8.);
#1696 = AXIS2_PLACEMENT_3D('',#1697,#1698,#1699);
#1697 = CARTESIAN_POINT('',(116.,27.3,37.));
#1698 = DIRECTION('',(-0.,0.961261695938,-0.275637355817));
#1699 = DIRECTION('',(1.,0.,0.));
#1700 = ADVANCED_FACE('',(#1701),#1720,.F.);
#1701 = FACE_BOUND('',#1702,.T.);
#1702 = EDGE_LOOP('',(#1703,#1712,#1718,#1719));
#1703 = ORIENTED_EDGE('',*,*,#1704,.F.);
#1704 = EDGE_CURVE('',#1705,#1705,#1707,.T.);
#1705 = VERTEX_POINT('',#1706);
#1706 = CARTESIAN_POINT('',(13.2,43.7,122.));
#1707 = CIRCLE('',#1708,4.2);
#1708 = AXIS2_PLACEMENT_3D('',#1709,#1710,#1711);
#1709 = CARTESIAN_POINT('',(9.,43.7,122.));
#1710 = DIRECTION('',(0.,-0.961261695938,0.275637355817));
#1711 = DIRECTION('',(1.,0.,0.));
#1712 = ORIENTED_EDGE('',*,*,#1713,.T.);
#1713 = EDGE_CURVE('',#1705,#1405,#1714,.T.);
#1714 = LINE('',#1715,#1716);
#1715 = CARTESIAN_POINT('',(13.2,43.7,122.));
#1716 = VECTOR('',#1717,1.);
#1717 = DIRECTION('',(0.,-0.961261695938,0.275637355817));
#1718 = ORIENTED_EDGE('',*,*,#1404,.F.);
#1719 = ORIENTED_EDGE('',*,*,#1713,.F.);
#1720 = CYLINDRICAL_SURFACE('',#1721,4.2);
#1721 = AXIS2_PLACEMENT_3D('',#1722,#1723,#1724);
#1722 = CARTESIAN_POINT('',(9.,43.7,122.));
#1723 = DIRECTION('',(-0.,0.961261695938,-0.275637355817));
#1724 = DIRECTION('',(1.,0.,0.));
#1725 = ADVANCED_FACE('',(#1726),#1745,.F.);
#1726 = FACE_BOUND('',#1727,.T.);
#1727 = EDGE_LOOP('',(#1728,#1737,#1743,#1744));
#1728 = ORIENTED_EDGE('',*,*,#1729,.F.);
#1729 = EDGE_CURVE('',#1730,#1730,#1732,.T.);
#1730 = VERTEX_POINT('',#1731);
#1731 = CARTESIAN_POINT('',(195.2,43.7,122.));
#1732 = CIRCLE('',#1733,4.2);
#1733 = AXIS2_PLACEMENT_3D('',#1734,#1735,#1736);
#1734 = CARTESIAN_POINT('',(191.,43.7,122.));
#1735 = DIRECTION('',(0.,-0.961261695938,0.275637355817));
#1736 = DIRECTION('',(1.,0.,0.));
#1737 = ORIENTED_EDGE('',*,*,#1738,.T.);
#1738 = EDGE_CURVE('',#1730,#1442,#1739,.T.);
#1739 = LINE('',#1740,#1741);
#1740 = CARTESIAN_POINT('',(195.2,43.7,122.));
#1741 = VECTOR('',#1742,1.);
#1742 = DIRECTION('',(0.,-0.961261695938,0.275637355817));
#1743 = ORIENTED_EDGE('',*,*,#1441,.F.);
#1744 = ORIENTED_EDGE('',*,*,#1738,.F.);
#1745 = CYLINDRICAL_SURFACE('',#1746,4.2);
#1746 = AXIS2_PLACEMENT_3D('',#1747,#1748,#1749);
#1747 = CARTESIAN_POINT('',(191.,43.7,122.));
#1748 = DIRECTION('',(-0.,0.961261695938,-0.275637355817));
#1749 = DIRECTION('',(1.,0.,0.));
#1750 = ADVANCED_FACE('',(#1751),#1755,.F.);
#1751 = FACE_BOUND('',#1752,.F.);
#1752 = EDGE_LOOP('',(#1753,#1754));
#1753 = ORIENTED_EDGE('',*,*,#1505,.T.);
#1754 = ORIENTED_EDGE('',*,*,#1688,.T.);
#1755 = PLANE('',#1756);
#1756 = AXIS2_PLACEMENT_3D('',#1757,#1758,#1759);
#1757 = CARTESIAN_POINT('',(116.,27.3,37.));
#1758 = DIRECTION('',(0.,-0.961261695938,0.275637355817));
#1759 = DIRECTION('',(1.,0.,0.));
#1760 = ADVANCED_FACE('',(#1761,#1764),#1775,.T.);
#1761 = FACE_BOUND('',#1762,.T.);
#1762 = EDGE_LOOP('',(#1763));
#1763 = ORIENTED_EDGE('',*,*,#1649,.T.);
#1764 = FACE_BOUND('',#1765,.T.);
#1765 = EDGE_LOOP('',(#1766));
#1766 = ORIENTED_EDGE('',*,*,#1767,.F.);
#1767 = EDGE_CURVE('',#1768,#1768,#1770,.T.);
#1768 = VERTEX_POINT('',#1769);
#1769 = CARTESIAN_POINT('',(91.6666,32.000343301165,111.34229925498));
#1770 = ELLIPSE('',#1771,4.200639777784,4.2);
#1771 = AXIS2_PLACEMENT_3D('',#1772,#1773,#1774);
#1772 = CARTESIAN_POINT('',(87.4666,32.000343301165,111.34229925498));
#1773 = DIRECTION('',(0.,-0.961261695938,0.275637355817));
#1774 = DIRECTION('',(0.,-0.275637355817,-0.961261695938));
#1775 = PLANE('',#1776);
#1776 = AXIS2_PLACEMENT_3D('',#1777,#1778,#1779);
#1777 = CARTESIAN_POINT('',(88.,32.019812864987,111.41019769307));
#1778 = DIRECTION('',(0.,-0.961261695938,0.275637355817));
#1779 = DIRECTION('',(1.,0.,0.));
#1780 = ADVANCED_FACE('',(#1781,#1784),#1795,.T.);
#1781 = FACE_BOUND('',#1782,.T.);
#1782 = EDGE_LOOP('',(#1783));
#1783 = ORIENTED_EDGE('',*,*,#1678,.T.);
#1784 = FACE_BOUND('',#1785,.T.);
#1785 = EDGE_LOOP('',(#1786));
#1786 = ORIENTED_EDGE('',*,*,#1787,.T.);
#1787 = EDGE_CURVE('',#1788,#1788,#1790,.T.);
#1788 = VERTEX_POINT('',#1789);
#1789 = CARTESIAN_POINT('',(120.19,10.345998557777,41.726383391852));
#1790 = CIRCLE('',#1791,4.2);
#1791 = AXIS2_PLACEMENT_3D('',#1792,#1793,#1794);
#1792 = CARTESIAN_POINT('',(115.99,10.345998557777,41.726383391852));
#1793 = DIRECTION('',(0.,0.961261695938,-0.275637355817));
#1794 = DIRECTION('',(1.,0.,0.));
#1795 = PLANE('',#1796);
#1796 = AXIS2_PLACEMENT_3D('',#1797,#1798,#1799);
#1797 = CARTESIAN_POINT('',(116.,10.381794151486,41.851217462379));
#1798 = DIRECTION('',(0.,-0.961261695938,0.275637355817));
#1799 = DIRECTION('',(1.,0.,0.));
#1800 = ADVANCED_FACE('',(#1801),#1804,.T.);
#1801 = FACE_BOUND('',#1802,.F.);
#1802 = EDGE_LOOP('',(#1803));
#1803 = ORIENTED_EDGE('',*,*,#1704,.F.);
#1804 = PLANE('',#1805);
#1805 = AXIS2_PLACEMENT_3D('',#1806,#1807,#1808);
#1806 = CARTESIAN_POINT('',(9.,43.7,122.));
#1807 = DIRECTION('',(0.,-0.961261695938,0.275637355817));
#1808 = DIRECTION('',(1.,0.,0.));
#1809 = ADVANCED_FACE('',(#1810),#1813,.T.);
#1810 = FACE_BOUND('',#1811,.F.);
#1811 = EDGE_LOOP('',(#1812));
#1812 = ORIENTED_EDGE('',*,*,#1729,.F.);
#1813 = PLANE('',#1814);
#1814 = AXIS2_PLACEMENT_3D('',#1815,#1816,#1817);
#1815 = CARTESIAN_POINT('',(191.,43.7,122.));
#1816 = DIRECTION('',(0.,-0.961261695938,0.275637355817));
#1817 = DIRECTION('',(1.,0.,0.));
#1818 = ADVANCED_FACE('',(#1819),#1838,.F.);
#1819 = FACE_BOUND('',#1820,.T.);
#1820 = EDGE_LOOP('',(#1821,#1830,#1836,#1837));
#1821 = ORIENTED_EDGE('',*,*,#1822,.F.);
#1822 = EDGE_CURVE('',#1823,#1823,#1825,.T.);
#1823 = VERTEX_POINT('',#1824);
#1824 = CARTESIAN_POINT('',(91.6666,40.97,108.6));
#1825 = CIRCLE('',#1826,4.2);
#1826 = AXIS2_PLACEMENT_3D('',#1827,#1828,#1829);
#1827 = CARTESIAN_POINT('',(87.4666,40.97,108.6));
#1828 = DIRECTION('',(0.,-0.956304755963,0.292371704723));
#1829 = DIRECTION('',(1.,0.,0.));
#1830 = ORIENTED_EDGE('',*,*,#1831,.T.);
#1831 = EDGE_CURVE('',#1823,#1768,#1832,.T.);
#1832 = LINE('',#1833,#1834);
#1833 = CARTESIAN_POINT('',(91.6666,40.97,108.6));
#1834 = VECTOR('',#1835,1.);
#1835 = DIRECTION('',(0.,-0.956304755963,0.292371704723));
#1836 = ORIENTED_EDGE('',*,*,#1767,.T.);
#1837 = ORIENTED_EDGE('',*,*,#1831,.F.);
#1838 = CYLINDRICAL_SURFACE('',#1839,4.2);
#1839 = AXIS2_PLACEMENT_3D('',#1840,#1841,#1842);
#1840 = CARTESIAN_POINT('',(87.4666,40.97,108.6));
#1841 = DIRECTION('',(-0.,0.956304755963,-0.292371704723));
#1842 = DIRECTION('',(1.,0.,0.));
#1843 = ADVANCED_FACE('',(#1844),#1863,.F.);
#1844 = FACE_BOUND('',#1845,.T.);
#1845 = EDGE_LOOP('',(#1846,#1855,#1861,#1862));
#1846 = ORIENTED_EDGE('',*,*,#1847,.F.);
#1847 = EDGE_CURVE('',#1848,#1848,#1850,.T.);
#1848 = VERTEX_POINT('',#1849);
#1849 = CARTESIAN_POINT('',(120.19,20.97,38.68));
#1850 = CIRCLE('',#1851,4.2);
#1851 = AXIS2_PLACEMENT_3D('',#1852,#1853,#1854);
#1852 = CARTESIAN_POINT('',(115.99,20.97,38.68));
#1853 = DIRECTION('',(0.,-0.961261695938,0.275637355817));
#1854 = DIRECTION('',(1.,0.,0.));
#1855 = ORIENTED_EDGE('',*,*,#1856,.T.);
#1856 = EDGE_CURVE('',#1848,#1788,#1857,.T.);
#1857 = LINE('',#1858,#1859);
#1858 = CARTESIAN_POINT('',(120.19,20.97,38.68));
#1859 = VECTOR('',#1860,1.);
#1860 = DIRECTION('',(0.,-0.961261695938,0.275637355817));
#1861 = ORIENTED_EDGE('',*,*,#1787,.F.);
#1862 = ORIENTED_EDGE('',*,*,#1856,.F.);
#1863 = CYLINDRICAL_SURFACE('',#1864,4.2);
#1864 = AXIS2_PLACEMENT_3D('',#1865,#1866,#1867);
#1865 = CARTESIAN_POINT('',(115.99,20.97,38.68));
#1866 = DIRECTION('',(-0.,0.961261695938,-0.275637355817));
#1867 = DIRECTION('',(1.,0.,0.));
#1868 = ADVANCED_FACE('',(#1869),#1872,.T.);
#1869 = FACE_BOUND('',#1870,.F.);
#1870 = EDGE_LOOP('',(#1871));
#1871 = ORIENTED_EDGE('',*,*,#1822,.F.);
#1872 = PLANE('',#1873);
#1873 = AXIS2_PLACEMENT_3D('',#1874,#1875,#1876);
#1874 = CARTESIAN_POINT('',(87.4666,40.97,108.6));
#1875 = DIRECTION('',(0.,-0.956304755963,0.292371704723));
#1876 = DIRECTION('',(1.,0.,0.));
#1877 = ADVANCED_FACE('',(#1878),#1881,.T.);
#1878 = FACE_BOUND('',#1879,.F.);
#1879 = EDGE_LOOP('',(#1880));
#1880 = ORIENTED_EDGE('',*,*,#1847,.F.);
#1881 = PLANE('',#1882);
#1882 = AXIS2_PLACEMENT_3D('',#1883,#1884,#1885);
#1883 = CARTESIAN_POINT('',(115.99,20.97,38.68));
#1884 = DIRECTION('',(0.,-0.961261695938,0.275637355817));
#1885 = DIRECTION('',(1.,0.,0.));
#1886 = ( GEOMETRIC_REPRESENTATION_CONTEXT(3) 
GLOBAL_UNCERTAINTY_ASSIGNED_CONTEXT((#1890)) 
GLOBAL_UNIT_ASSIGNED_CONTEXT((#1887,#1888,#1889)) REPRESENTATION_CONTEXT
('Context #1','3D Context with UNIT and UNCERTAINTY') );
#1887 = ( LENGTH_UNIT() NAMED_UNIT(*) SI_UNIT(.MILLI.,.METRE.) );
#1888 = ( NAMED_UNIT(*) PLANE_ANGLE_UNIT() SI_UNIT($,.RADIAN.) );
#1889 = ( NAMED_UNIT(*) SI_UNIT($,.STERADIAN.) SOLID_ANGLE_UNIT() );
#1890 = UNCERTAINTY_MEASURE_WITH_UNIT(LENGTH_MEASURE(5.E-05),#1887,
  'distance_accuracy_value','confusion accuracy');
#1891 = PRODUCT_RELATED_PRODUCT_CATEGORY('part',$,(#7));
#1892 = MECHANICAL_DESIGN_GEOMETRIC_PRESENTATION_REPRESENTATION('',(
    #1893),#1886);
#1893 = STYLED_ITEM('color',(#1894),#15);
#1894 = PRESENTATION_STYLE_ASSIGNMENT((#1895,#1901));
#1895 = SURFACE_STYLE_USAGE(.BOTH.,#1896);
#1896 = SURFACE_SIDE_STYLE('',(#1897));
#1897 = SURFACE_STYLE_FILL_AREA(#1898);
#1898 = FILL_AREA_STYLE('',(#1899));
#1899 = FILL_AREA_STYLE_COLOUR('',#1900);
#1900 = COLOUR_RGB('',0.447058818107,0.474509808674,0.501960817233);
#1901 = CURVE_STYLE('',#1902,POSITIVE_LENGTH_MEASURE(0.1),#1903);
#1902 = DRAUGHTING_PRE_DEFINED_CURVE_FONT('continuous');
#1903 = COLOUR_RGB('',9.803921802644E-02,9.803921802644E-02,
  9.803921802644E-02);
ENDSEC;
END-ISO-10303-21;
